<ttFont>
          <CharString index="0">
            -80 callgsubr
            -102 callgsubr
            hvcurveto
            605 vmoveto
            -59 callsubr
            -97 callgsubr
            hvcurveto
            return
          </CharString>
          <CharString index="1">
            2 callgsubr
            -107 callsubr
            return
          </CharString>
          <CharString index="2">
            622 hmoveto
            -249 700 rlineto
            -121 hlineto
            -249 -64 callgsubr
            60 169 rlineto
            233 hlineto
            60 -169 rlineto
            -104 293 rmoveto
            -145 hlineto
            72 205 rlineto
            return
          </CharString>
          <CharString index="3">
            1 callsubr
            359 -14 rmoveto
            197 93 124 190 hvcurveto
            400 -128 -357 vlineto
            -130 -27 -104 -135 -135 -27 104 130 vhcurveto
            357 -128 -400 vlineto
            -190 93 -124 197 vhcurveto
            return
          </CharString>
          <CharString index="4">
            -33 callsubr
            -147 91 -147 -91 -25 callsubr
            71 rlineto
            endchar
          </CharString>
          <CharString index="5">
            -38 -20 42 -60 hhcurveto
            -55 -63 -35 -67 -7 hvcurveto
            83 -20 rlineto
            20 4 14 27 30 hhcurveto
            return
          </CharString>
          <CharString index="6">
            -68 callgsubr
            -14 callgsubr
            -1 callsubr
            5 187 -41 125 hintmask 11111010
            -107 callgsubr
            hintmask 11111100
            40 return
          </CharString>
          <CharString index="7">
            rmoveto
            106 -97 -106 vlineto
            -82 callgsubr
          </CharString>
          <CharString index="8">
            rmoveto
            68 42 52 50 8 hvcurveto
            -76 20 rlineto
            -20 -4 -22 -27 -31 hhcurveto
            return
          </CharString>
          <CharString index="9">
            535 hmoveto
            124 -327 179 246 124 -246 149 317 124 -448 -22 callgsubr
            return
          </CharString>
          <CharString index="10">
            hstem
            21 130 151 125 vstem
            -107 callgsubr
            return
          </CharString>
          <CharString index="11">
            hstem
            38 130 240 143 vstem
            280 -14 rmoveto
            236 35 124 80 154 -133 40 -109 33 hvcurveto
            -76 23 -65 22 56 vvcurveto
            60 74 14 54 67 63 -22 -41 75 vhcurveto
            13 131 rlineto
            24 -36 -91 30 -96 hhcurveto
            -189 -64 -117 -93 -125 108 -35 99 -34 hvcurveto
            85 -29 78 -25 -71 vvcurveto
            -57 -50 -19 -75 -105 -77 37 37 -38 vhcurveto
            -15 -146 rlineto
            -26 40 86 -25 106 hhcurveto
            return
          </CharString>
          <CharString index="12">
            -32 callgsubr
            111 187 112 -106 callsubr
            93 return
          </CharString>
          <CharString index="13">
            -20 callgsubr
            164 187 vstem
            -106 callgsubr
            79 return
          </CharString>
          <CharString index="14">
            39 -21 67 -108 -30 -42 -10 -15 -16 vhcurveto
            13 -65 rlineto
            11 12 21 2 14 hhcurveto
            53 10 -19 -18 -7 -9 -24 -42 hvcurveto
            -34 hlineto
            -7 -72 rlineto
            66 hlineto
            36 8 -25 -32 -13 -23 -9 -44 return
          </CharString>
          <CharString index="15">
            hstem
            36 109 127 -50 callsubr
            200 -10 rmoveto
            171 25 86 61 103 -70 31 -67 19 hvcurveto
            -63 18 -51 8 48 vvcurveto
            40 40 15 43 54 58 -29 -25 25 vhcurveto
            11 106 rlineto
            18 -27 -65 19 -65 hhcurveto
            -141 -42 -89 -70 -96 74 -23 70 -21 hvcurveto
            49 -15 43 -14 -42 vvcurveto
            -25 -16 -30 -60 -56 -67 26 24 -31 vhcurveto
            -11 -106 rlineto
            -19 29 62 -18 78 hhcurveto
            return
          </CharString>
          <CharString index="16">
            99 -94 vlineto
            55 83 26 58 47 vvcurveto
            42 -24 57 -85 -62 -42 -25 -31 -17 vhcurveto
            12 -87 rlineto
            12 6 34 58 52 hhcurveto
            26 10 -18 -25 -25 -9 -43 -147 -202 hvcurveto
            return
          </CharString>
          <CharString index="17">
            -65 callsubr
            hstem
            35 2 callgsubr
            380 -14 rmoveto
            73 75 16 25 51 hvcurveto
            -14 122 rlineto
            -23 -58 -54 -17 -73 hhcurveto
            -95 callgsubr
            73 54 -17 -23 58 hvcurveto
            14 122 rlineto
            25 -51 -75 16 -73 hhcurveto
            -36 callgsubr
            return
          </CharString>
          <CharString index="18">
            hstem
            -16 callgsubr
            -106 callsubr
            return
          </CharString>
          <CharString index="19">
            -160 -93 -68 callsubr
            93 -45 callsubr
            return
          </CharString>
          <CharString index="20">
            -80 -46 64 93 93 46 64 80 return
          </CharString>
          <CharString index="21">
            -27 callgsubr
            68 187 69 -104 callsubr
            93 return
          </CharString>
          <CharString index="22">
            -27 -23 -30 -15 -41 hhcurveto
            -70 -29 44 93 hvcurveto
            269 -124 return
          </CharString>
          <CharString index="23">
            -44 callgsubr
            -18 callsubr
            vstem
            271 -10 rmoveto
            80 38 17 20 32 hvcurveto
            -11 106 rlineto
            -72 callgsubr
            rlineto
            20 -32 -38 17 -80 hhcurveto
            -160 -83 -68 callsubr
            83 -3 callsubr
            return
          </CharString>
          <CharString index="24">
            -33 callsubr
            -147 -71 -147 71 -25 callsubr
            -91 rlineto
            endchar
          </CharString>
          <CharString index="25">
            -18 callsubr
            252 -104 callgsubr
            return
          </CharString>
          <CharString index="26">
            605 -9 callsubr
            -136 hlineto
            -170 -276 -170 276 rlineto
            -136 hlineto
            242 -390 rlineto
            -310 128 310 vlineto
            return
          </CharString>
          <CharString index="27">
            -200 -145 -144 -220 return
          </CharString>
          <CharString index="28">
            -75 callgsubr
            270 -20 hstem
            219 187 vstem
            -105 callsubr
            94 return
          </CharString>
          <CharString index="29">
            281 -10 rmoveto
            160 93 119 140 return
          </CharString>
          <CharString index="30">
            110 -63 70 -87 -87 -68 -73 -115 -110 60 -71 90 return
          </CharString>
          <CharString index="31">
            92 rmoveto
            -16 hlineto
            -36 -8 5 75 hvcurveto
            return
          </CharString>
          <CharString index="32">
            -99 callsubr
            hintmask 01010000
            -102 callsubr
            hintmask 10001000
            -60 callgsubr
          </CharString>
          <CharString index="33">
            rmoveto
            107 67 84 115 112 -69 83 -98 -100 -74 -86 -116 -112 65 -80 102 hvcurveto
            6 310 rmoveto
            34 40 -32 -79 -86 -37 -26 -42 -38 -35 26 79 84 43 34 35 hvcurveto
            endchar
          </CharString>
          <CharString index="34">
            -8 416 -39 callsubr
            -35 64 93 93 35 64 80 hvcurveto
            endchar
          </CharString>
          <CharString index="35">
            43 0 -71 callsubr
            return
          </CharString>
          <CharString index="36">
            124 179 -59 callgsubr
            return
          </CharString>
          <CharString index="37">
            rmoveto
            -152 -58 callgsubr
            152 -206 -152 -206 rlineto
            147 hlineto
            return
          </CharString>
          <CharString index="38">
            vstem
            351 37 rmoveto
            180 130 131 197 198 -130 130 -180 -180 -131 -130 -198 -197 131 -131 180 hvcurveto
            return
          </CharString>
          <CharString index="39">
            -119 -140 -140 return
          </CharString>
          <CharString index="40">
            rmoveto
            37 35 -32 -76 -71 callgsubr
            hvcurveto
            return
          </CharString>
          <CharString index="41">
            205 -62 callgsubr
            return
          </CharString>
          <CharString index="42">
            123 482 123 return
          </CharString>
          <CharString index="43">
            21 -5 callsubr
            27 187 -156 124 hintmask 11101000
            -66 callgsubr
            hintmask 11110000
            156 return
          </CharString>
          <CharString index="44">
            rmoveto
            -134 hlineto
            -365 -785 rlineto
            134 hlineto
            return
          </CharString>
          <CharString index="45">
            -14 -65 callsubr
            return
          </CharString>
          <CharString index="46">
            -293 -89 -25 callgsubr
            54 -50 callsubr
            178 hmoveto
            -85 callgsubr
          </CharString>
          <CharString index="47">
            -10 rmoveto
            160 85 -10 callgsubr
            -85 119 -160 return
          </CharString>
          <CharString index="48">
            136 69 -101 -140 return
          </CharString>
          <CharString index="49">
            rlineto
            -74 vlineto
            return
          </CharString>
          <CharString index="50">
            -9 -37 callsubr
            -77 callsubr
            hvcurveto
            19 709 rmoveto
            -104 hlineto
            return
          </CharString>
          <CharString index="51">
            298 -60 callsubr
            -52 -33 -12 -21 -32 hvcurveto
            275 -124 return
          </CharString>
          <CharString index="52">
            rmoveto
            -130 124 130 vlineto
            -33 10 33 86 -26 14 rlineto
            return
          </CharString>
          <CharString index="53">
            132 vlineto
            -131 -27 29 153 rlineto
            -150 hlineto
            29 -153 -131 27 rlineto
            -132 vlineto
            131 26 -29 return
          </CharString>
          <CharString index="54">
            -10 -47 callgsubr
            return
          </CharString>
          <CharString index="55">
            21 -21 581 -20 hstem
            return
          </CharString>
          <CharString index="56">
            hstem
            452 500 rmoveto
            -421 -110 211 hlineto
            -221 -390 rlineto
            420 110 -210 hlineto
            return
          </CharString>
          <CharString index="57">
            124 vstem
            return
          </CharString>
          <CharString index="58">
            181 -127 121 -176 -176 -128 -37 callgsubr
            128 -121 176 return
          </CharString>
          <CharString index="59">
            -33 75 5 -20 hstemhm
            return
          </CharString>
          <CharString index="60">
            -243 -70 callgsubr
            return
          </CharString>
          <CharString index="61">
            -70 callgsubr
            hstem
            return
          </CharString>
          <CharString index="62">
            -119 160 return
          </CharString>
          <CharString index="63">
            hlineto
            262 577 rmoveto
            136 69 -87 -140 -140 -69 -87 -136 hvcurveto
            -134 return
          </CharString>
          <CharString index="64">
            rmoveto
            94 -138 128 -94 -128 -138 -94 138 -128 94 128 vlineto
            return
          </CharString>
          <CharString index="65">
            193 -17 callgsubr
            591 -20 return
          </CharString>
          <CharString index="66">
            -99 callgsubr
            endchar
          </CharString>
          <CharString index="67">
            499 -38 callgsubr
            -39 -42 -17 -21 -29 vhcurveto
            return
          </CharString>
          <CharString index="68">
            rmoveto
            -29 callgsubr
            return
          </CharString>
          <CharString index="69">
            hvcurveto
            -24 -90 rlineto
            -10 7 53 -20 47 hhcurveto
            return
          </CharString>
          <CharString index="70">
            rmoveto
            93 62 74 115 return
          </CharString>
          <CharString index="71">
            -422 -712 rlineto
            104 hlineto
            -67 347 -37 callsubr
            hvcurveto
            return
          </CharString>
          <CharString index="72">
            606 -21 165 -20 hstem
            return
          </CharString>
          <CharString index="73">
            hstem
            58 -50 callsubr
            return
          </CharString>
          <CharString index="74">
            rmoveto
            74 vlineto
            return
          </CharString>
          <CharString index="75">
            -10 callsubr
            -66 callgsubr
            return
          </CharString>
          <CharString index="76">
            130 hstem
            54 -50 callsubr
            178 return
          </CharString>
          <CharString index="77">
            -221 -21 232 -44 callgsubr
            return
          </CharString>
          <CharString index="78">
            hstem
            -24 callsubr
            return
          </CharString>
          <CharString index="79">
            -222 -35 callsubr
            58 187 vstem
            245 return
          </CharString>
          <CharString index="80">
            -112 -57 74 110 109 57 74 112 hvcurveto
            endchar
          </CharString>
          <CharString index="81">
            -1 callgsubr
            vstem
            return
          </CharString>
          <CharString index="82">
            -58 callsubr
            147 return
          </CharString>
          <CharString index="83">
            77 128 return
          </CharString>
          <CharString index="84">
            127 vstem
            return
          </CharString>
          <CharString index="85">
            75 -59 -21 47 33 -48 callsubr
            hintmask 01101000
            return
          </CharString>
          <CharString index="86">
            46 -10 102 -71 -21 406 102 -14 callgsubr
            hstemhm
            return
          </CharString>
          <CharString index="87">
            200 rmoveto
            -124 124 124 vlineto
            endchar
          </CharString>
          <CharString index="88">
            -2 callgsubr
            -8 -20 return
          </CharString>
          <CharString index="89">
            hstem
            -8 callgsubr
            return
          </CharString>
          <CharString index="90">
            -123 -581 vlineto
            endchar
          </CharString>
          <CharString index="91">
            119 99 120 return
          </CharString>
          <CharString index="92">
            97 54 97 return
          </CharString>
          <CharString index="93">
            85 -64 81 -81 242 -72 93 hintmask 11110010
            return
          </CharString>
          <CharString index="94">
            -6 callgsubr
            endchar
          </CharString>
          <CharString index="95">
            -60 vlineto
            -11 -102 rlineto
            71 return
          </CharString>
          <CharString index="96">
            21 -21 500 -20 hstem
            return
          </CharString>
          <CharString index="97">
            -20 -34 callsubr
            return
          </CharString>
          <CharString index="98">
            700 rmoveto
            return
          </CharString>
          <CharString index="99">
            471 -21 300 -20 hstem
            46 104 return
          </CharString>
          <CharString index="100">
            23 2 callsubr
            452 124 return
          </CharString>
          <CharString index="101">
            rmoveto
            -93 callgsubr
            return
          </CharString>
          <CharString index="102">
            -21 500 -20 270 -20 hstemhm
            return
          </CharString>
          <CharString index="103">
            -20 -9 callgsubr
            return
          </CharString>
          <CharString index="104">
            -45 callsubr
            hvcurveto
            return
          </CharString>
          <CharString index="105">
            98 79 72 68 77 return
          </CharString>
          <CharString index="106">
            hstemhm
            21 130 return
          </CharString>
          <CharString index="107">
            230 rmoveto
            94 return
          </CharString>
          <CharString index="108">
            128 vstem
            return
          </CharString>
          <CharString index="109">
            0 124 return
          </CharString>
        <CharString name=".notdef">
          -275 240 130 hstem
          55 -50 callsubr
          179 240 -6 callsubr
          endchar
        </CharString>
        <CharString name="A">
          -75 callgsubr
          hstem
          -105 callsubr
          endchar
        </CharString>
        <CharString name="A.sc">
          33 21 -21 131 120 330 -20 hstem
          554 hmoveto
          -218 581 rlineto
          -114 hlineto
          -218 -581 rlineto
          128 hlineto
          50 131 rlineto
          194 hlineto
          51 -131 rlineto
          -94 251 rmoveto
          -108 hlineto
          53 131 rlineto
          endchar
        </CharString>
        <CharString name="AE">
          342 2 callsubr
          45 124 10 -59 callgsubr
          hstem
          397 131 vstem
          833 -41 callgsubr
          -494 vlineto
          -341 -64 callgsubr
          81 169 rlineto
          194 -169 hlineto
          293 vmoveto
          -135 hlineto
          135 280 rlineto
          endchar
        </CharString>
        <CharString name="AE.sc">
          243 0 120 15 118 -10 -16 callsubr
          hstemhm
          352 121 hintmask 10111000
          736 hmoveto
          120 -263 123 196 119 -196 99 255 120 -438 vlineto
          -300 -581 rlineto
          130 hlineto
          hintmask 11011000
          68 135 rlineto
          164 -135 hlineto
          253 vmoveto
          -107 hlineto
          107 206 rlineto
          endchar
        </CharString>
        <CharString name="Aacute">
          -79 callsubr
          348 -98 callgsubr
        </CharString>
        <CharString name="Acircumflex">
          -75 callgsubr
          270 -20 hstem
          -105 callsubr
          147 287 -103 callsubr
        </CharString>
        <CharString name="Adieresis">
          -75 callgsubr
          114 106 hstem
          188 -15 callsubr
          vstem
          -105 callsubr
          124 296 -100 callsubr
        </CharString>
        <CharString name="Agrave">
          -79 callsubr
          287 -91 callgsubr
        </CharString>
        <CharString name="Aring">
          -75 callgsubr
          96 48 82 49 hstem
          208 60 88 60 vstem
          -105 callsubr
          278 vmoveto
          -89 callgsubr
        </CharString>
        <CharString name="Atilde">
          -75 callgsubr
          119 75 -48 callsubr
          hintmask 11110100
          -105 callsubr
          70 301 -99 callsubr
          hintmask 11101000
          -102 callsubr
          hintmask 11110100
          -60 callgsubr
        </CharString>
        <CharString name="B">
          101 0 109 209 101 172 109 hstemhm
          -24 callsubr
          210 119 -69 69 -69 132 hintmask 11110010
          347 hmoveto
          117 133 44 162 89 -41 48 -81 31 hvcurveto
          hintmask 11111000
          41 34 18 49 63 vvcurveto
          155 -107 25 -161 vhcurveto
          -189 -700 hlineto
          241 591 rmoveto
          59 38 -17 -73 -67 -49 -15 -36 hvcurveto
          -125 172 hlineto
          133 -273 rmoveto
          hintmask 11110100
          72 55 -24 -81 -79 -52 -25 -82 hvcurveto
          -126 209 hlineto
          endchar
        </CharString>
        <CharString name="B.sc">
          46 0 101 161 90 128 101 hstemhm
          71 123 179 111 -70 70 -70 127 hintmask 11110010
          318 hmoveto
          104 119 43 127 80 -41 37 -68 24 hvcurveto
          hintmask 11111000
          32 18 20 45 54 vvcurveto
          132 -96 21 -141 vhcurveto
          -176 -581 hlineto
          230 480 rmoveto
          46 26 -19 -54 -38 -41 -17 -26 hvcurveto
          -112 128 hlineto
          112 -218 rmoveto
          hintmask 11110100
          63 45 -21 -58 -56 -38 -26 -62 hvcurveto
          -120 161 hlineto
          endchar
        </CharString>
        <CharString name="C">
          84 -14 -90 callsubr
          endchar
        </CharString>
        <CharString name="C.sc">
          20 -19 callgsubr
          hstem
          34 135 vstem
          336 -12 rmoveto
          65 67 13 22 45 hvcurveto
          -14 116 rlineto
          -21 -52 -46 -11 -66 hhcurveto
          -111 -55 74 110 109 55 74 112 65 46 -11 -21 52 hvcurveto
          14 117 rlineto
          21 -46 -66 13 -65 hhcurveto
          -175 -127 -37 callgsubr
          127 -121 175 hvcurveto
          endchar
        </CharString>
        <CharString name="Ccedilla">
          85 -173 -21 180 -90 callsubr
          11 -38 -40 callgsubr
        </CharString>
        <CharString name="D">
          195 0 123 454 123 -29 callsubr
          339 2 callgsubr
          339 -43 callgsubr
          -700 -44 callsubr
          454 hlineto
          endchar
        </CharString>
        <CharString name="D.sc">
          116 0 119 343 119 -9 callgsubr
          276 135 vstem
          303 hmoveto
          175 127 108 183 182 -127 108 -175 hvcurveto
          -232 -581 hlineto
          232 462 rmoveto
          112 55 -63 -108 -109 -55 -63 -112 hvcurveto
          -109 343 hlineto
          endchar
        </CharString>
        <CharString name="E">
          -72 callsubr
          hstem
          77 131 vstem
          -98 callsubr
          endchar
        </CharString>
        <CharString name="E.sc">
          -13 0 120 123 -16 callsubr
          hstem
          71 -23 callsubr
          481 hmoveto
          120 -283 123 211 119 -211 99 274 120 -401 -581 vlineto
          endchar
        </CharString>
        <CharString name="Eacute">
          -77 callgsubr
          846 -98 callgsubr
        </CharString>
        <CharString name="Ecircumflex">
          -72 callsubr
          250 -20 hstem
          77 131 vstem
          -98 callsubr
          343 785 -103 callsubr
        </CharString>
        <CharString name="Edieresis">
          -72 callsubr
          94 106 hstemhm
          77 131 -59 -15 callsubr
          hintmask 11111010
          -98 callsubr
          320 794 rmoveto
          106 -97 -106 vlineto
          hintmask 11110110
          -82 callgsubr
        </CharString>
        <CharString name="Egrave">
          -77 callgsubr
          785 -91 callgsubr
        </CharString>
        <CharString name="Eth">
          206 0 123 176 94 184 123 hstem
          88 128 339 2 callgsubr
          350 -43 callgsubr
          -307 -92 -94 92 -299 -44 callsubr
          176 122 94 -122 184 hlineto
          endchar
        </CharString>
        <CharString name="Euro">
          178 17 110 82 86 69 81 128 110 hstem
          469 17 rmoveto
          64 66 12 25 51 hvcurveto
          -14 113 rlineto
          -23 -54 -49 -17 -64 hhcurveto
          -74 -51 30 52 -30 hvcurveto
          183 hlineto
          30 86 rlineto
          -241 hlineto
          -3 17 -1 18 20 vvcurveto
          14 234 vlineto
          30 81 rlineto
          -251 hlineto
          78 24 56 50 94 hhcurveto
          64 49 -17 -23 54 hvcurveto
          14 113 rlineto
          25 -51 -66 12 -64 hhcurveto
          -152 -119 -91 -147 -36 hvcurveto
          -73 hlineto
          -28 -81 rlineto
          90 -14 hlineto
          -19 1 -19 2 -17 vhcurveto
          -92 hlineto
          -30 -86 rlineto
          144 hlineto
          -120 48 110 -72 135 hhcurveto
          endchar
        </CharString>
        <CharString name="F">
          0 21 -21 303 -59 callgsubr
          -29 callsubr
          vstem
          508 576 rmoveto
          124 -431 -24 callgsubr
          303 234 124 -234 149 vlineto
          endchar
        </CharString>
        <CharString name="F.sc">
          -53 21 -21 243 -16 callsubr
          -9 callgsubr
          vstem
          452 461 rmoveto
          120 -381 -581 123 243 199 119 -199 99 vlineto
          endchar
        </CharString>
        <CharString name="G">
          139 -17 callgsubr
          136 106 240 123 hstemhm
          -15 callgsubr
          237 205 -128 128 hintmask 11111000
          377 -14 rmoveto
          80 109 24 29 51 hvcurveto
          312 -205 -106 vlineto
          hintmask 11110100
          77 -125 hlineto
          -7 -34 -33 -4 -29 hhcurveto
          -145 -73 101 143 136 66 102 146 62 77 -18 -22 54 hvcurveto
          14 122 rlineto
          25 -51 -91 16 -68 hhcurveto
          -205 -144 -144 -219 -221 146 -144 196 hvcurveto
          endchar
        </CharString>
        <CharString name="G.sc">
          66 -19 callgsubr
          hstemhm
          34 135 197 180 -123 123 hintmask 11110000
          335 -12 rmoveto
          70 98 20 24 43 hvcurveto
          259 -180 -97 vlineto
          hintmask 11101000
          57 -81 hlineto
          -3 -29 -24 -3 -25 hhcurveto
          -116 -60 76 111 105 54 75 120 54 69 -15 -20 46 hvcurveto
          14 119 rlineto
          22 -44 -82 13 -60 hhcurveto
          -180 -126 -37 callgsubr
          128 -121 173 hvcurveto
          endchar
        </CharString>
        <CharString name="H">
          215 21 -21 303 124 273 -1 callgsubr
          330 1 callsubr
          663 -51 callgsubr
          -273 -330 273 -128 -24 callgsubr
          303 330 -303 vlineto
          endchar
        </CharString>
        <CharString name="H.sc">
          133 21 -21 243 119 219 -4 callsubr
          269 -50 callsubr
          587 hmoveto
          581 -124 -219 -269 219 -123 -581 123 243 269 -243 vlineto
          endchar
        </CharString>
        <CharString name="I">
          -47 callsubr
          hstem
          77 128 vstem
          -66 callsubr
          endchar
        </CharString>
        <CharString name="I.sc">
          -260 -30 callgsubr
          vstem
          194 hmoveto
          581 -17 callsubr
        </CharString>
        <CharString name="Iacute">
          -67 callgsubr
          846 -98 callgsubr
        </CharString>
        <CharString name="Icircumflex">
          -47 callsubr
          270 -26 callsubr
          -66 callsubr
          211 785 -103 callsubr
        </CharString>
        <CharString name="Idieresis">
          -47 callsubr
          114 106 hstemhm
          17 97 -37 128 -37 97 hintmask 11101000
          -66 callsubr
          hintmask 11110100
          188 794 -100 callsubr
        </CharString>
        <CharString name="Igrave">
          -67 callgsubr
          785 -91 callgsubr
        </CharString>
        <CharString name="J">
          -243 -172 96 776 -26 callsubr
          43 -172 rmoveto
          100 62 48 100 hvcurveto
          724 -128 -696 vlineto
          -55 -13 -25 -40 vhcurveto
          -27 hlineto
          10 -96 rlineto
          endchar
        </CharString>
        <CharString name="J.sc">
          -260 -143 98 626 -4 callsubr
          vstem
          53 -143 rmoveto
          83 58 39 88 hvcurveto
          597 -123 -575 vlineto
          -35 -10 -16 -24 vhcurveto
          -31 hlineto
          9 -98 rlineto
          endchar
        </CharString>
        <CharString name="K">
          96 21 -21 700 -26 callsubr
          618 hmoveto
          -244 370 244 330 rlineto
          -144 hlineto
          -244 -330 244 -370 rlineto
          -269 -62 callgsubr
          endchar
        </CharString>
        <CharString name="K.sc">
          45 -30 callgsubr
          vstem
          562 hmoveto
          -210 307 210 274 rlineto
          -140 hlineto
          -210 -274 210 -307 rlineto
          -228 hmoveto
          581 -17 callsubr
        </CharString>
        <CharString name="L">
          -25 2 callsubr
          576 -26 callsubr
          493 hmoveto
          124 -288 576 -128 -22 callgsubr
          endchar
        </CharString>
        <CharString name="L.sc">
          -76 0 120 461 -4 callsubr
          vstem
          437 hmoveto
          120 -243 461 -17 callsubr
        </CharString>
        <CharString name="M">
          308 -46 callsubr
          789 hmoveto
          -97 700 rlineto
          -105 hlineto
          -170 -319 -171 319 rlineto
          -105 hlineto
          -97 -64 callgsubr
          60 468 180 -321 179 322 60 -469 rlineto
          endchar
        </CharString>
        <CharString name="M.sc">
          225 -52 callsubr
          708 hmoveto
          -87 581 rlineto
          -100 hlineto
          -145 -252 -147 252 rlineto
          -100 hlineto
          -86 -581 rlineto
          128 hlineto
          50 361 154 -248 154 249 51 -362 rlineto
          endchar
        </CharString>
        <CharString name="N">
          182 -46 callsubr
          77 128 297 1 callsubr
          -57 callgsubr
          endchar
        </CharString>
        <CharString name="N.sc">
          107 -30 callgsubr
          244 123 vstem
          561 hmoveto
          581 -123 -343 vlineto
          -249 343 rlineto
          -118 -581 123 366 hlineto
          266 -366 rlineto
          endchar
        </CharString>
        <CharString name="Ntilde">
          182 -70 callgsubr
          119 75 -48 callsubr
          -24 callsubr
          297 128 hintmask 11101110
          -57 callgsubr
          -102 799 -94 callgsubr
        </CharString>
        <CharString name="O">
          -73 callgsubr
          -89 callsubr
          endchar
        </CharString>
        <CharString name="O.sc">
          151 -19 callgsubr
          hstem
          34 135 337 135 vstem
          338 -12 rmoveto
          176 127 121 182 -49 callsubr
          hvcurveto
          486 vmoveto
          112 56 -74 -109 -110 -56 -74 -112 -27 callsubr
        </CharString>
        <CharString name="OE">
          538 -17 callgsubr
          -109 -71 callsubr
          -109 123 hstemhm
          -16 callgsubr
          139 hintmask 01110110
          1029 -41 callgsubr
          -427 -55 vlineto
          hintmask 10101110
          44 -58 -73 25 -82 hhcurveto
          -101 callgsubr
          82 73 25 44 58 hvcurveto
          hintmask 01101110
          -55 vlineto
          -213 591 rmoveto
          -59 callsubr
          hvcurveto
          hintmask 10101110
          -97 callgsubr
          vhcurveto
          endchar
        </CharString>
        <CharString name="OE.sc">
          416 -12 119 -107 120 123 -16 callsubr
          -107 119 hstemhm
          34 136 340 135 hintmask 01110110
          909 hmoveto
          120 -264 123 197 119 -197 99 256 120 -384 -33 vlineto
          hintmask 10101110
          24 -40 -65 21 -72 hhcurveto
          -177 -129 -37 callgsubr
          129 -121 177 72 65 21 24 40 hvcurveto
          hintmask 01101110
          -33 vlineto
          -177 474 rmoveto
          112 58 -75 -108 hvcurveto
          hintmask 10101110
          -109 -58 -75 -112 -112 -58 75 109 108 58 75 112 vhcurveto
          endchar
        </CharString>
        <CharString name="Oacute">
          -95 callsubr
          255 -98 callgsubr
        </CharString>
        <CharString name="Ocircumflex">
          235 -14 123 482 123 236 -20 -89 callsubr
          147 194 -103 callsubr
        </CharString>
        <CharString name="Odieresis">
          -73 callgsubr
          80 106 hstem
          -15 callgsubr
          81 -15 callsubr
          81 -106 callsubr
          124 203 -100 callsubr
        </CharString>
        <CharString name="Ograve">
          -95 callsubr
          194 -91 callgsubr
        </CharString>
        <CharString name="Oslash">
          235 -17 callgsubr
          -119 -21 622 123 2 -20 hstemhm
          -16 callgsubr
          140 hintmask 10011100
          -80 callgsubr
          110 -37 92 -62 63 hvcurveto
          69 101 rlineto
          -134 hlineto
          -25 -36 rlineto
          hintmask 01101100
          22 -46 -53 12 -57 hhcurveto
          -80 callsubr
          -109 35 -90 60 -64 hvcurveto
          -81 -118 rlineto
          134 hlineto
          36 53 rlineto
          hintmask 10101100
          -23 47 55 -13 59 hhcurveto
          168 516 rmoveto
          25 -41 12 -52 -59 vvcurveto
          -140 -69 -101 -136 -34 -30 6 11 -25 vhcurveto
          89 465 rmoveto
          32 28 -6 -10 24 hvcurveto
          -255 -373 rlineto
          -23 40 -11 51 57 vvcurveto
          140 69 101 136 vhcurveto
          endchar
        </CharString>
        <CharString name="Otilde">
          -73 callgsubr
          85 75 -48 callsubr
          -16 callgsubr
          140 hintmask 11101110
          -107 callsubr
          70 208 -94 callgsubr
        </CharString>
        <CharString name="P">
          71 21 -21 230 120 243 107 -29 callsubr
          240 130 vstem
          330 230 rmoveto
          99 146 47 201 192 -106 30 -194 hvcurveto
          -198 -24 callgsubr
          230 hlineto
          105 363 rmoveto
          107 28 -36 -80 -95 -39 -32 -93 hvcurveto
          -108 243 hlineto
          endchar
        </CharString>
        <CharString name="P.sc">
          17 21 -21 184 115 183 99 hstem
          71 122 202 -50 callsubr
          294 184 rmoveto
          89 136 36 175 161 -91 25 -191 hvcurveto
          -166 -581 122 184 hlineto
          92 298 rmoveto
          89 21 -29 -58 -79 -35 -17 -81 hvcurveto
          -86 183 hlineto
          endchar
        </CharString>
        <CharString name="Q">
          -73 callgsubr
          hstem
          -16 callgsubr
          2 callgsubr
          725 79 rmoveto
          -62 51 rlineto
          39 59 23 75 86 vvcurveto
          -102 callgsubr
          77 70 21 40 55 vhcurveto
          69 -57 rlineto
          -271 601 rmoveto
          -59 callsubr
          -50 -9 -45 -18 -37 hvcurveto
          -88 74 -74 -89 84 -71 rlineto
          -15 -28 -33 -8 -39 hhcurveto
          -95 callgsubr
          hvcurveto
          endchar
        </CharString>
        <CharString name="Q.sc">
          151 -12 119 -100 -21 488 119 hstemhm
          34 135 334 138 hintmask 10111000
          646 73 rmoveto
          -56 43 rlineto
          31 42 20 62 71 vvcurveto
          -49 callsubr
          67 62 17 30 44 vhcurveto
          hintmask 01111000
          62 -49 rlineto
          -235 488 rmoveto
          111 54 -74 -109 -39 -9 -30 -8 -17 hvcurveto
          -72 53 -73 -86 68 -53 rlineto
          hintmask 10111000
          -5 -19 -20 -7 -32 hhcurveto
          -27 callsubr
        </CharString>
        <CharString name="R">
          101 21 -21 260 120 213 107 -29 callsubr
          235 134 vstem
          613 hmoveto
          -158 294 rlineto
          66 41 53 55 108 vvcurveto
          152 -106 50 -135 vhcurveto
          -256 -24 callgsubr
          260 130 hlineto
          145 -260 rlineto
          -176 593 rmoveto
          110 26 -39 -65 -63 -25 -46 -116 hvcurveto
          -94 213 hlineto
          endchar
        </CharString>
        <CharString name="R.sc">
          44 21 -21 210 112 157 102 hstem
          71 122 195 129 vstem
          553 hmoveto
          -138 242 rlineto
          54 36 48 37 100 vvcurveto
          124 -96 42 -115 vhcurveto
          -235 -581 122 210 109 hlineto
          124 -210 rlineto
          -155 479 rmoveto
          102 15 -29 -47 -36 -8 -45 -123 hvcurveto
          -64 157 hlineto
          endchar
        </CharString>
        <CharString name="S">
          55 -17 callgsubr
          483 122 -96 callsubr
          endchar
        </CharString>
        <CharString name="S.sc">
          -5 -12 119 368 118 hstem
          38 123 190 138 vstem
          252 -12 rmoveto
          205 32 105 69 128 -116 35 -91 25 hvcurveto
          -64 18 -57 16 43 vvcurveto
          44 61 4 42 58 56 -15 -37 68 vhcurveto
          12 122 rlineto
          21 -30 -81 27 -86 hhcurveto
          -165 -58 -98 -80 -106 93 -29 82 -28 hvcurveto
          70 -24 68 -22 -50 vvcurveto
          -38 -34 -11 -62 -96 -68 31 32 -31 vhcurveto
          -14 -137 rlineto
          -23 35 76 -22 95 hhcurveto
          endchar
        </CharString>
        <CharString name="Scaron">
          55 -17 callgsubr
          483 122 236 -20 -96 callsubr
          157 890 -83 callsubr
        </CharString>
        <CharString name="T">
          29 21 -21 576 124 hstem
          213 1 callsubr
          539 576 rmoveto
          124 -524 -124 198 -576 128 576 vlineto
          endchar
        </CharString>
        <CharString name="T.sc">
          -25 21 -21 461 120 hstem
          188 -50 callsubr
          484 461 rmoveto
          120 -468 -120 172 -461 124 461 vlineto
          endchar
        </CharString>
        <CharString name="Thorn">
          39 21 -21 193 96 182 98 131 -1 callgsubr
          212 130 vstem
          251 193 rmoveto
          196 100 46 150 156 -108 24 -188 hvcurveto
          -46 131 -128 -24 callgsubr
          193 hlineto
          79 278 rmoveto
          103 30 -26 -62 -59 -32 -35 -101 hvcurveto
          -79 182 hlineto
          endchar
        </CharString>
        <CharString name="U">
          193 -14 123 591 -78 callgsubr
          endchar
        </CharString>
        <CharString name="U.sc">
          113 -12 119 474 -20 hstem
          64 123 264 123 vstem
          319 -12 rmoveto
          174 81 106 156 hvcurveto
          331 -123 -296 vlineto
          -105 -23 -73 -109 -109 -23 73 105 vhcurveto
          296 -123 -331 vlineto
          -156 82 -106 173 vhcurveto
          endchar
        </CharString>
        <CharString name="Uacute">
          -86 callsubr
          860 -98 callgsubr
        </CharString>
        <CharString name="Ucircumflex">
          193 -14 123 591 -20 270 -78 callgsubr
          147 799 -103 callsubr
        </CharString>
        <CharString name="Udieresis">
          -42 callsubr
          114 106 hstem
          69 128 38 -15 callsubr
          38 -104 callsubr
          124 808 -100 callsubr
        </CharString>
        <CharString name="Ugrave">
          -86 callsubr
          799 -91 callgsubr
        </CharString>
        <CharString name="V">
          132 -46 callsubr
          654 -9 callsubr
          -132 hlineto
          -193 -531 -196 531 rlineto
          -133 hlineto
          252 -700 rlineto
          156 hlineto
          endchar
        </CharString>
        <CharString name="V.sc">
          60 -52 callsubr
          581 581 rmoveto
          -126 hlineto
          -162 -414 -165 414 rlineto
          -128 hlineto
          217 -581 rlineto
          155 hlineto
          endchar
        </CharString>
        <CharString name="W">
          438 -46 callsubr
          957 -9 callsubr
          -133 hlineto
          -134 -484 -162 484 rlineto
          -89 hlineto
          -156 -497 -140 497 rlineto
          -133 hlineto
          197 -700 rlineto
          121 hlineto
          155 467 156 -467 rlineto
          113 hlineto
          endchar
        </CharString>
        <CharString name="W.sc">
          327 21 -21 581 -20 26 -20 hstemhm
          hintmask 11000000
          844 581 rmoveto
          -127 hlineto
          -112 -354 rlineto
          hintmask 10100000
          -138 360 rlineto
          -79 hlineto
          -131 -376 rlineto
          hintmask 11000000
          -118 370 rlineto
          -128 hlineto
          174 -581 rlineto
          111 hlineto
          132 340 134 -340 rlineto
          102 hlineto
          endchar
        </CharString>
        <CharString name="X">
          102 -46 callsubr
          629 hmoveto
          -244 363 230 337 rlineto
          -147 hlineto
          -148 -246 -162 246 rlineto
          -148 hlineto
          236 -351 -247 -349 rlineto
          147 hlineto
          165 257 170 -257 rlineto
          endchar
        </CharString>
        <CharString name="X.sc">
          47 -52 callsubr
          570 hmoveto
          -213 302 196 279 rlineto
          -144 hlineto
          -116 -192 -136 192 rlineto
          -143 hlineto
          208 -291 -221 -290 rlineto
          144 hlineto
          140 200 139 -200 rlineto
          endchar
        </CharString>
        <CharString name="Y">
          73 -46 callsubr
          235 1 callsubr
          -81 callsubr
          endchar
        </CharString>
        <CharString name="Y.sc">
          12 -52 callsubr
          208 121 vstem
          544 581 rmoveto
          -131 hlineto
          -144 -222 -145 222 rlineto
          -131 hlineto
          215 -330 rlineto
          -251 121 251 vlineto
          endchar
        </CharString>
        <CharString name="Yacute">
          73 -70 callgsubr
          270 -20 hstemhm
          205 187 -157 128 hintmask 11101000
          -81 callsubr
          hintmask 11110000
          29 536 -98 callgsubr
        </CharString>
        <CharString name="Ydieresis">
          73 -70 callgsubr
          114 106 hstemhm
          175 97 -37 128 -37 97 hintmask 11101000
          -81 callsubr
          hintmask 11110100
          60 484 -100 callsubr
        </CharString>
        <CharString name="Z">
          -7 callsubr
          -50 callgsubr
          endchar
        </CharString>
        <CharString name="Z.sc">
          -33 0 120 341 120 hstem
          481 581 rmoveto
          -429 -120 226 hlineto
          -266 -461 rlineto
          429 120 -226 hlineto
          endchar
        </CharString>
        <CharString name="Zcaron">
          -7 callsubr
          250 -20 -50 callgsubr
          201 752 -83 callsubr
        </CharString>
        <CharString name="a">
          -68 callgsubr
          -97 callsubr
          endchar
        </CharString>
        <CharString name="aacute">
          -101 callsubr
          411 -98 callgsubr
        </CharString>
        <CharString name="acircumflex">
          -68 callgsubr
          242 -20 -97 callsubr
          94 350 -103 callsubr
        </CharString>
        <CharString name="acute">
          -28 callsubr
          646 -98 callgsubr
        </CharString>
        <CharString name="adieresis">
          -68 callgsubr
          86 106 -1 callsubr
          -25 -15 callsubr
          -72 125 hintmask 11111001
          -107 callgsubr
          hintmask 11110110
          71 359 -100 callsubr
        </CharString>
        <CharString name="ae">
          269 -15 107 -81 -21 233 84 94 107 hstemhm
          20 130 hintmask 10111000
          758 223 rmoveto
          5 24 3 21 25 vvcurveto
          131 -82 84 -116 -86 -71 -46 -43 -16 vhcurveto
          69 -24 -51 20 -76 hhcurveto
          -60 -61 -15 -29 -60 hvcurveto
          -76 callgsubr
          66 22 -26 -61 3 hvcurveto
          -99 -5 -183 -28 -154 vvcurveto
          -87 59 -55 105 93 57 43 56 44 vhcurveto
          hintmask 01111000
          -56 31 68 -38 101 hhcurveto
          70 58 18 20 38 hvcurveto
          -6 105 rlineto
          hintmask 10111000
          -22 -41 -66 -19 -47 hhcurveto
          -66 -63 38 93 -14 hvcurveto
          123 183 rmoveto
          69 22 -54 -45 hvcurveto
          -211 hlineto
          58 12 47 41 61 hhcurveto
          -254 -176 rmoveto
          1 -11 0 -6 -11 vvcurveto
          -80 -56 -41 -45 -33 -27 22 35 66 93 25 67 1 vhcurveto
          endchar
        </CharString>
        <CharString name="agrave">
          -101 callsubr
          350 -91 callgsubr
        </CharString>
        <CharString name="ampersand">
          102 -24 95 -50 -21 604 99 hstemhm
          32 129 -82 122 131 109 hintmask 01101100
          624 hmoveto
          -105 120 rlineto
          42 80 7 95 57 vvcurveto
          -119 hlineto
          -1 -43 0 -51 -9 -47 -140 160 rcurveline
          71 51 71 50 88 vvcurveto
          85 -57 58 -102 -105 -98 -61 -104 -63 35 -58 40 -50 vhcurveto
          hintmask 10110100
          -65 -48 -57 -59 -92 vvcurveto
          -100 71 -92 162 81 59 23 35 44 vhcurveto
          hintmask 01101100
          31 -34 rlineto
          -204 604 rmoveto
          34 22 -15 -43 -46 -37 -34 -48 -34 hvcurveto
          -31 39 -15 29 33 vvcurveto
          47 32 24 43 vhcurveto
          110 -499 rmoveto
          hintmask 10110100
          -21 -24 -33 -13 -47 hhcurveto
          -97 -24 56 52 50 21 38 31 33 hvcurveto
          endchar
        </CharString>
        <CharString name="aring">
          -68 callgsubr
          68 48 82 49 -1 callsubr
          -5 60 96 52 -52 125 hintmask 1111110010000000
          -107 callgsubr
          -53 341 rmoveto
          hintmask 1111101100000000
          -89 callgsubr
        </CharString>
        <CharString name="asciicircum">
          -14 421 -21 359 -20 hstem
          461 400 rmoveto
          147 vlineto
          -206 212 -206 -212 rlineto
          -147 vlineto
          206 212 rlineto
          endchar
        </CharString>
        <CharString name="asciitilde">
          -59 176 -22 callsubr
          304 176 -75 callsubr
        </CharString>
        <CharString name="asterisk">
          -79 430 -21 340 -20 hstem
          309 412 rmoveto
          67 65 -120 90 159 50 -47 82 -134 -107 36 157 rlineto
          -94 hlineto
          35 -157 -133 107 -47 -82 162 -52 -121 -91 67 -65 86 140 rlineto
          endchar
        </CharString>
        <CharString name="at">
          189 -87 129 390 121 hstem
          45 120 80 188 53 185 vstem
          541 379 rmoveto
          -26 -110 -29 -67 -55 vvcurveto
          -18 1 -35 36 33 62 22 43 28 vhcurveto
          16 43 9 49 48 vvcurveto
          155 -92 99 -157 -202 -175 -165 -218 -162 96 -95 152 139 126 79 114 63 vhcurveto
          -33 -32 -61 -31 -40 hhcurveto
          -42 -13 48 35 hvcurveto
          6 3 20 5 vvcurveto
          -73 -41 -82 -43 -53 hhcurveto
          -72 -23 55 56 139 130 142 124 57 40 -27 -26 25 hvcurveto
          -121 -8 rmoveto
          -65 -110 -88 -113 -34 13 -30 31 67 99 136 107 19 hvcurveto
          22 -8 -30 0 -16 hhcurveto
          endchar
        </CharString>
        <CharString name="atilde">
          -68 callgsubr
          91 75 -48 callsubr
          21 130 151 125 hintmask 11110111
          -107 callgsubr
          14 364 -99 callsubr
          hintmask 11101011
          -102 callsubr
          hintmask 11110111
          -60 callgsubr
        </CharString>
        <CharString name="b">
          -21 callsubr
          57 124 235 127 hintmask 10111100
          -56 callsubr
          vlineto
          hintmask 01111100
          -750 116 vlineto
          2 28 rlineto
          hintmask 10111100
          -24 35 33 -14 55 hhcurveto
          -73 callsubr
        </CharString>
        <CharString name="backslash">
          26 -64 -21 785 -20 hstem
          532 -85 rmoveto
          -365 785 rlineto
          -134 hlineto
          365 -785 rlineto
          endchar
        </CharString>
        <CharString name="bar">
          -291 -189 -21 960 -20 hstem
          67 100 vstem
          167 -210 rmoveto
          960 -100 -960 vlineto
          endchar
        </CharString>
        <CharString name="braceleft">
          -206 -26 callgsubr
          hstemhm
          89 98 -98 218 hintmask 11010000
          89 29 rmoveto
          -111 59 -54 159 vhcurveto
          109 vlineto
          hintmask 11100000
          -119 -1 17 125 hvcurveto
          32 3 30 27 vvcurveto
          42 -8 35 -43 26 vhcurveto
          43 27 8 41 43 27 -3 29 26 vvcurveto
          hintmask 11010000
          124 1 17 119 vhcurveto
          109 vlineto
          -165 -53 -59 -106 hvcurveto
          -38 7 -54 -44 vvcurveto
          -77 -22 -33 -60 -32 vhcurveto
          64 -33 18 -37 -71 -45 -7 -54 -38 vvcurveto
          endchar
        </CharString>
        <CharString name="braceright">
          -206 -26 callgsubr
          hstemhm
          12 211 -91 91 hintmask 11100000
          230 29 rmoveto
          38 -7 54 45 vvcurveto
          71 18 37 64 33 vhcurveto
          -60 32 -22 33 77 44 7 54 38 vvcurveto
          106 -53 59 -165 vhcurveto
          -109 vlineto
          hintmask 11010000
          119 1 -17 -124 hvcurveto
          -26 -3 -29 -27 vvcurveto
          -43 8 -41 43 -27 vhcurveto
          -43 -26 -8 -35 -42 -27 3 -30 -32 vvcurveto
          hintmask 11100000
          -125 -1 -17 -119 vhcurveto
          -109 vlineto
          159 59 54 111 hvcurveto
          endchar
        </CharString>
        <CharString name="bracketleft">
          -190 -26 callgsubr
          hstem
          67 113 vstem
          324 -136 rmoveto
          109 -144 668 144 109 -257 -886 vlineto
          endchar
        </CharString>
        <CharString name="bracketright">
          -185 -136 124 638 124 hstem
          160 113 vstem
          273 -136 rmoveto
          886 -257 -124 144 -638 -144 -124 vlineto
          endchar
        </CharString>
        <CharString name="brokenbar">
          -301 -189 -21 960 -20 hstem
          68 88 vstem
          156 284 rmoveto
          466 -88 -466 vlineto
          88 -494 rmoveto
          400 -88 -400 vlineto
          endchar
        </CharString>
        <CharString name="bullet">
          -227 169 218 hstem
          40 218 vstem
          149 169 rmoveto
          60 49 49 60 60 -49 49 -60 -60 -49 -49 -60 -60 49 -49 60 hvcurveto
          endchar
        </CharString>
        <CharString name="c">
          -77 -10 -84 callsubr
          endchar
        </CharString>
        <CharString name="caron">
          -79 -35 callsubr
          370 676 -83 callsubr
        </CharString>
        <CharString name="ccedilla">
          -76 -173 -21 184 -84 callsubr
          69 -42 -40 callgsubr
        </CharString>
        <CharString name="cedilla">
          -222 -173 -21 142 -20 hstem
          303 -52 -40 callgsubr
        </CharString>
        <CharString name="cent">
          -49 -32 223 314 101 -101 243 hstemhm
          34 127 hintmask 11010000
          304 89 rmoveto
          62 4 33 15 28 18 -11 106 rcurveline
          -72 callgsubr
          -29 18 -33 15 -63 3 rlinecurve
          hintmask 10110000
          17 142 rlineto
          -96 hlineto
          18 -143 rlineto
          -136 -17 -71 -111 -129 vvcurveto
          -129 70 -110 135 -18 vhcurveto
          -16 -123 rlineto
          96 hlineto
          endchar
        </CharString>
        <CharString name="circumflex">
          -79 -35 callsubr
          370 585 -103 callsubr
        </CharString>
        <CharString name="colon">
          -293 0 130 180 -31 callsubr
          310 -6 callsubr
          124 -310 -6 callsubr
          endchar
        </CharString>
        <CharString name="comma">
          -61 callsubr
        </CharString>
        <CharString name="copyright">
          176 37 69 84 84 178 85 86 70 hstem
          40 77 78 91 298 77 -69 callsubr
          586 vmoveto
          156 77 -110 -148 -148 -77 -111 -156 -157 -77 111 148 148 77 110 157 hvcurveto
          8 -433 rmoveto
          35 39 9 16 28 hvcurveto
          -10 84 rlineto
          -15 -31 -28 -10 -33 hhcurveto
          -47 -26 36 53 55 26 34 47 33 28 -10 -13 31 hvcurveto
          10 85 rlineto
          13 -28 -38 10 -36 hhcurveto
          -96 -68 -69 -105 -104 69 -69 95 hvcurveto
          endchar
        </CharString>
        <CharString name="currency">
          103 40 -21 70 -44 callgsubr
          70 -20 hstem
          61 127 252 -23 callsubr
          574 69 rmoveto
          -74 97 rlineto
          43 47 24 65 70 vvcurveto
          69 -23 65 -43 47 vhcurveto
          73 98 -60 50 -75 -100 rlineto
          19 -35 -42 11 -48 hhcurveto
          -48 -42 -11 -18 -35 hvcurveto
          -74 99 -60 -50 73 -97 rlineto
          -44 -47 -23 -65 -70 vvcurveto
          -70 23 -65 43 -47 vhcurveto
          -72 -97 60 -50 74 99 rlineto
          -19 35 42 -10 48 hhcurveto
          48 42 10 19 35 hvcurveto
          75 -99 rlineto
          -200 486 rmoveto
          -41 callsubr
        </CharString>
        <CharString name="d">
          -21 callsubr
          -8 callgsubr
          235 124 hintmask 01111100
          514 hmoveto
          750 -124 -275 vlineto
          21 -32 -34 12 -51 hhcurveto
          -160 -85 -119 -140 hvcurveto
          hintmask 10111100
          -140 85 -45 callsubr
          54 33 14 24 35 vhcurveto
          hintmask 01111100
          2 -28 rlineto
          -116 406 rmoveto
          80 35 -64 -93 hvcurveto
          hintmask 10111100
          -93 -35 -87 callgsubr
          vhcurveto
          endchar
        </CharString>
        <CharString name="dagger">
          -99 21 -21 607 -20 hstem
          390 349 rmoveto
          -54 callsubr
          -118 30 -257 rlineto
          90 hlineto
          30 257 -29 118 rlineto
          endchar
        </CharString>
        <CharString name="daggerdbl">
          -53 -38 -21 666 -20 hstem
          413 67 rmoveto
          132 vlineto
          -131 -26 29 101 -29 101 131 -26 rlineto
          -54 callsubr
          -101 29 -101 -131 26 rlineto
          -132 vlineto
          131 27 -29 -153 rlineto
          150 hlineto
          -29 153 rlineto
          endchar
        </CharString>
        <CharString name="degree">
          -200 482 51 171 51 hstem
          30 68 128 69 vstem
          162 482 rmoveto
          84 49 62 74 74 -49 63 -84 -83 -49 -63 -74 -74 49 -62 83 hvcurveto
          222 vmoveto
          42 22 -35 -51 -51 -22 -34 -42 -40 -24 34 51 51 24 35 40 hvcurveto
          endchar
        </CharString>
        <CharString name="dieresis">
          -103 594 106 hstem
          87 -15 callsubr
          vstem
          335 594 -100 callsubr
        </CharString>
        <CharString name="divide">
          36 20 130 80 94 80 130 hstem
          214 124 cntrmask 11100000
          338 404 -6 callsubr
          296 -174 rmoveto
          94 -460 -94 vlineto
          288 -210 -6 callsubr
          endchar
        </CharString>
        <CharString name="dollar">
          -1 -32 215 -104 104 350 100 -100 215 hstemhm
          40 122 193 134 hintmask 10101100
          298 80 rmoveto
          162 14 29 86 57 201 -327 -50 97 vvcurveto
          41 60 7 52 49 67 -23 -29 56 vhcurveto
          11 113 -28 16 -65 19 -66 4 rlinecurve
          hintmask 10011100
          16 115 rlineto
          -107 hlineto
          hintmask 01101100
          16 -115 rlineto
          -138 -13 -45 -80 -67 -169 315 36 -104 vvcurveto
          -39 -37 -14 -65 -88 -66 31 32 -34 vhcurveto
          -17 -127 32 -19 65 -17 78 -4 rlinecurve
          hintmask 10101100
          -16 -111 rlineto
          107 hlineto
          endchar
        </CharString>
        <CharString name="dotlessi">
          21 -21 500 -32 callsubr
          endchar
        </CharString>
        <CharString name="dotlessj">
          -242 102 640 -20 -56 callgsubr
          endchar
        </CharString>
        <CharString name="e">
          -53 callsubr
          hstem
          -106 callgsubr
          endchar
        </CharString>
        <CharString name="eacute">
          -94 callsubr
          240 -98 callgsubr
        </CharString>
        <CharString name="ecircumflex">
          -20 callgsubr
          -106 callgsubr
          132 179 -103 callsubr
        </CharString>
        <CharString name="edieresis">
          -53 callsubr
          86 106 hstem
          133 -15 callsubr
          vstem
          -106 callgsubr
          109 188 -100 callsubr
        </CharString>
        <CharString name="egrave">
          -94 callsubr
          179 -91 callgsubr
        </CharString>
        <CharString name="eight">
          77 -14 102 526 100 hstemhm
          56 122 -83 112 183 118 -88 126 hintmask 11100100
          291 -14 rmoveto
          179 76 118 100 83 -52 66 -72 33 hvcurveto
          hintmask 11011000
          54 45 32 53 68 vvcurveto
          85 -51 77 -152 -160 -50 -86 -91 -56 19 -64 50 -40 vhcurveto
          hintmask 11101000
          -81 -59 -27 -70 -63 vvcurveto
          -102 72 -97 163 vhcurveto
          9 628 rmoveto
          68 22 -40 -44 -44 -22 -41 -73 -20 hvcurveto
          hintmask 11010100
          -72 20 -16 41 39 vvcurveto
          48 24 41 69 vhcurveto
          4 -282 rmoveto
          61 -14 55 -43 -75 vvcurveto
          -67 -45 -45 -79 vhcurveto
          hintmask 11101000
          -73 -45 39 68 81 64 46 62 10 hvcurveto
          endchar
        </CharString>
        <CharString name="eightinferior">
          -158 -8 69 113 59 87 66 hstemhm
          42 -14 callsubr
          177 -8 -96 callgsubr
        </CharString>
        <CharString name="eightsuperior">
          -184 312 69 113 59 87 66 hstemhm
          29 -14 callsubr
          164 312 -96 callgsubr
        </CharString>
        <CharString name="ellipsis">
          179 0 130 hstem
          54 124 112 124 112 124 cntrmask 01110000
          178 -6 callgsubr
          360 -6 callgsubr
          360 -13 callsubr
        </CharString>
        <CharString name="emdash">
          63 230 94 hstem
          534 0 callsubr
          -480 -94 vlineto
          endchar
        </CharString>
        <CharString name="endash">
          -29 230 94 hstem
          442 0 callsubr
          -388 -94 vlineto
          endchar
        </CharString>
        <CharString name="equal">
          -31 150 94 66 94 hstem
          432 310 -12 callgsubr
          370 -160 -12 callgsubr
          endchar
        </CharString>
        <CharString name="eth">
          -24 -13 101 241 97 285 -20 hstem
          16 118 218 120 vstem
          242 -13 rmoveto
          103 127 58 213 139 -54 123 -75 81 hvcurveto
          25 28 22 32 22 34 -67 16 rcurveline
          -14 -21 -20 -21 -22 -20 -46 33 -50 18 -49 1 -41 -53 rcurveline
          41 -1 41 -19 36 -30 rrcurveto
          -27 -42 -44 -17 -34 hhcurveto
          39 -73 50 5 46 21 41 31 rlinecurve
          34 -22 30 -92 4 -37 rrcurveto
          21 -27 -34 18 -56 hhcurveto
          -141 -71 -113 -108 -127 98 -91 128 hvcurveto
          -1 342 rmoveto
          73 38 -46 -76 -85 -54 -34 -54 -75 -35 64 68 50 34 59 73 hvcurveto
          endchar
        </CharString>
        <CharString name="exclam">
          -275 2 callsubr
          626 -20 hstem
          73 104 vstem
          187 750 rmoveto
          -124 hlineto
          20 -550 rlineto
          84 hlineto
          20 -200 -42 callgsubr
          endchar
        </CharString>
        <CharString name="exclamdown">
          -295 -229 -21 626 124 hstem
          63 104 vstem
          53 -250 rmoveto
          124 hlineto
          -20 550 rlineto
          -84 hlineto
          -20 -20 callsubr
        </CharString>
        <CharString name="f">
          -185 21 -21 398 102 250 -20 hstem
          88 -50 callsubr
          322 398 rmoveto
          102 -110 68 vlineto
          61 8 17 37 8 23 0 -5 22 vhcurveto
          11 103 rlineto
          3 -33 -14 3 -66 hhcurveto
          -81 -39 -66 -65 hvcurveto
          -119 -12 callsubr
          -398 124 398 hlineto
          endchar
        </CharString>
        <CharString name="five">
          12 -13 120 225 107 137 124 hstem
          363 -50 callsubr
          232 -13 rmoveto
          129 126 81 163 143 -85 63 -194 2 hvcurveto
          17 137 rlineto
          212 hlineto
          13 124 rlineto
          -321 hlineto
          -44 -368 rlineto
          107 hlineto
          144 27 -49 -57 -89 -66 -30 -69 -61 -56 24 28 -32 hvcurveto
          -30 -116 rlineto
          -17 4 90 -39 89 hhcurveto
          endchar
        </CharString>
        <CharString name="fiveinferior">
          -190 -6 91 75 76 43 99 hstem
          205 87 vstem
          155 -6 -74 callgsubr
          -32 23 77 -12 17 hhcurveto
          endchar
        </CharString>
        <CharString name="fivesuperior">
          -218 314 91 75 76 43 99 hstem
          191 87 vstem
          141 314 -74 callgsubr
          -26 18 82 -18 17 hhcurveto
          endchar
        </CharString>
        <CharString name="florin">
          -170 -221 -21 660 82 115 99 hstem
          378 702 rmoveto
          8 -24 -23 4 -23 hhcurveto
          -94 -75 -66 -109 -17 hvcurveto
          -6 -39 rlineto
          -81 hlineto
          -9 -82 rlineto
          78 hlineto
          -70 -478 rlineto
          -69 -10 -21 -11 -38 hhcurveto
          20 -102 rlineto
          31 hlineto
          37 65 40 121 19 hvcurveto
          78 499 rlineto
          132 hlineto
          8 82 rlineto
          -127 hlineto
          86 14 19 29 58 hhcurveto
          14 16 -3 -4 18 hvcurveto
          endchar
        </CharString>
        <CharString name="four">
          56 21 -21 190 104 406 -20 hstem
          311 1 callsubr
          524 190 rmoveto
          104 -85 406 -107 vlineto
          -322 -510 rlineto
          301 -190 128 190 hlineto
          -128 104 rmoveto
          -127 hlineto
          127 210 rlineto
          endchar
        </CharString>
        <CharString name="fourinferior">
          -152 21 -21 103 71 204 -20 hstem
          188 96 vstem
          333 103 -90 callgsubr
        </CharString>
        <CharString name="foursuperior">
          -177 341 -21 103 71 204 -20 hstem
          177 96 vstem
          322 423 -90 callgsubr
        </CharString>
        <CharString name="g">
          -24 -250 88 276 91 212 91 -8 -20 hstemhm
          34 93 -93 111 -84 112 155 111 -50 110 hintmask 1110001010000000
          260 -250 rmoveto
          154 85 64 97 121 -130 21 -71 9 hvcurveto
          -82 10 -43 7 24 vvcurveto
          7 4 6 7 3 vhcurveto
          -3 17 17 -2 19 hhcurveto
          hintmask 1101100100000000
          131 71 90 107 40 -10 39 -20 31 hvcurveto
          1 11 11 0 6 hhcurveto
          45 hlineto
          8 78 rlineto
          -32 hlineto
          -47 -40 -11 -11 -20 hvcurveto
          hintmask 1110010100000000
          19 -30 -39 11 -45 hhcurveto
          -131 -72 -90 -107 -66 27 -59 50 -36 hvcurveto
          hintmask 1110001100000000
          -33 -16 -17 -21 -31 vvcurveto
          -33 18 -22 27 -17 vhcurveto
          -53 -28 -29 -36 -48 vvcurveto
          -74 70 -74 166 vhcurveto
          -23 667 rmoveto
          60 31 -42 -64 -64 -31 -42 -60 hvcurveto
          hintmask 1110010010000000
          -61 -31 42 64 64 31 42 61 hvcurveto
          19 -447 rmoveto
          63 -7 70 -9 -48 vvcurveto
          -43 -58 -25 -77 vhcurveto
          hintmask 1110100100000000
          -81 -46 28 44 38 33 19 36 12 hvcurveto
          22 -4 20 -3 18 -2 rrcurveto
          endchar
        </CharString>
        <CharString name="germandbls">
          40 -115 -21 121 98 315 102 144 106 hstemhm
          88 122 68 131 -43 43 6 70 -70 129 hintmask 1111101010000000
          323 -15 rmoveto
          118 103 42 122 hvcurveto
          139 -135 39 40 vvcurveto
          hintmask 1111101100000000
          30 76 56 109 vvcurveto
          135 -118 53 -79 -94 -106 -75 -120 vhcurveto
          -55 -12 callsubr
          -534 122 696 hlineto
          49 28 35 49 39 40 -22 -66 vhcurveto
          hintmask 1111110100000000
          -99 -88 -42 -55 -69 137 -35 -106 vvcurveto
          -64 -50 -3 -102 vhcurveto
          -93 vlineto
          -4 22 20 -1 18 hhcurveto
          endchar
        </CharString>
        <CharString name="grave">
          -28 callsubr
          585 -91 callgsubr
        </CharString>
        <CharString name="greater">
          -79 -45 callgsubr
          417 284 rmoveto
          -212 -58 callgsubr
          212 -206 -212 -206 rlineto
          147 hlineto
          endchar
        </CharString>
        <CharString name="guillemotleft">
          82 -45 callgsubr
          570 78 rmoveto
          -69 callgsubr
          -113 hmoveto
          -69 callgsubr
          endchar
        </CharString>
        <CharString name="guillemotright">
          82 -45 callgsubr
          596 284 -70 callsubr
          -108 206 -70 callsubr
          endchar
        </CharString>
        <CharString name="guilsinglleft">
          -178 -45 callgsubr
          310 78 rmoveto
          -69 callgsubr
          endchar
        </CharString>
        <CharString name="guilsinglright">
          -178 -45 callgsubr
          336 284 -70 callsubr
          endchar
        </CharString>
        <CharString name="h">
          26 -2 callgsubr
          1 callgsubr
          57 -11 callgsubr
          vstem
          498 -38 callgsubr
          -37 -38 -15 -19 -29 vhcurveto
          276 -124 -750 124 363 vlineto
          -53 callgsubr
          endchar
        </CharString>
        <CharString name="hyphen">
          -35 callgsubr
        </CharString>
        <CharString name="i">
          21 -21 500 -20 96 124 -34 callsubr
          182 576 -42 callgsubr
          124 -576 rmoveto
          500 -124 -500 vlineto
          endchar
        </CharString>
        <CharString name="iacute">
          -64 callsubr
          646 -98 callgsubr
        </CharString>
        <CharString name="icircumflex">
          21 -21 500 -20 270 -32 callsubr
          209 585 -103 callsubr
        </CharString>
        <CharString name="idieresis">
          21 -21 500 -20 114 106 hstemhm
          -4 97 -35 124 -35 97 hintmask 11101000
          -66 callgsubr
          hintmask 11110100
          186 594 -100 callsubr
        </CharString>
        <CharString name="igrave">
          -64 callsubr
          585 -91 callgsubr
        </CharString>
        <CharString name="j">
          -242 102 640 -20 96 124 -56 callgsubr
          173 818 -42 callgsubr
          endchar
        </CharString>
        <CharString name="k">
          -40 21 -21 500 -20 270 -20 hstem
          57 -50 callsubr
          181 hmoveto
          222 vlineto
          159 -222 rlineto
          140 hlineto
          -183 260 183 240 rlineto
          -140 hlineto
          -159 -205 rlineto
          455 -124 -750 vlineto
          endchar
        </CharString>
        <CharString name="l">
          -262 -10 102 658 -10 callsubr
          242 92 rmoveto
          -49 -11 0 80 hvcurveto
          578 -124 -629 vlineto
          -72 39 -59 89 vhcurveto
          45 hlineto
          endchar
        </CharString>
        <CharString name="less">
          -79 -45 callgsubr
          388 78 rmoveto
          -212 206 212 -58 callgsubr
          -212 -206 212 -206 rlineto
          endchar
        </CharString>
        <CharString name="logicalnot">
          63 172 -21 161 94 hstem
          426 94 vstem
          520 151 rmoveto
          255 -460 -94 366 -161 vlineto
          endchar
        </CharString>
        <CharString name="m">
          341 -19 callsubr
          hstemhm
          58 124 192 123 192 124 cntrmask 00011100
          hintmask 11011100
          813 hmoveto
          269 vlineto
          140 -64 99 -135 -90 -59 -44 -32 -17 vhcurveto
          52 -35 -60 24 -58 hhcurveto
          -53 -46 -23 -24 -29 hvcurveto
          hintmask 10111100
          -7 39 rlineto
          -102 -500 124 365 hlineto
          hintmask 11011100
          26 22 30 15 40 hhcurveto
          70 30 -29 -108 hvcurveto
          -269 123 309 vlineto
          51 17 46 82 69 24 -45 -92 vhcurveto
          -269 vlineto
          endchar
        </CharString>
        <CharString name="mu">
          84 -221 -21 234 102 -83 -21 510 -20 hstemhm
          69 -11 callgsubr
          hintmask 11011100
          570 -76 callsubr
          328 -124 -364 vlineto
          -85 callsubr
          -742 124 248 vlineto
          -9 25 29 -5 35 hhcurveto
          46 50 23 27 28 hvcurveto
          hintmask 10111100
          -32 20 35 -20 53 hhcurveto
          45 hlineto
          endchar
        </CharString>
        <CharString name="multiply">
          -77 130 -21 336 -20 hstem
          392 170 rmoveto
          -107 107 107 107 -61 61 -107 -107 -107 107 -61 -61 107 -107 -107 -107 61 -61 107 107 107 -107 rlineto
          endchar
        </CharString>
        <CharString name="n">
          27 -19 callsubr
          hstemhm
          58 -11 callgsubr
          hintmask 11011000
          -40 callsubr
          hintmask 10111000
          -21 callgsubr
          hintmask 11011000
          -53 callgsubr
          endchar
        </CharString>
        <CharString name="nine">
          39 21 -21 279 104 217 114 hstem
          42 125 208 130 vstem
          286 714 rmoveto
          -150 -94 -108 -128 -132 88 -67 123 15 80 8 30 27 hvcurveto
          -145 -8 -181 -122 -63 hhcurveto
          81 -50 rlineto
          126 175 190 258 192 -97 74 -122 hvcurveto
          -21 -331 rmoveto
          -71 -27 51 49 57 39 60 73 46 59 -23 -81 -76 -53 -37 -66 hvcurveto
          endchar
        </CharString>
        <CharString name="nineinferior">
          -185 0 225 -74 74 76 85 hstemhm
          29 95 88 86 hintmask 01111000
          171 386 rmoveto
          -87 -55 -64 -66 -67 58 -38 64 23 22 3 10 16 hvcurveto
          -52 -3 -106 -75 -40 hhcurveto
          -49 callgsubr
          18 25 29 10 31 0 -4 callgsubr
        </CharString>
        <CharString name="ninesuperior">
          -208 320 225 -74 74 77 84 hstemhm
          19 95 88 86 hintmask 01111000
          161 706 rmoveto
          -87 -55 -64 -66 -67 75 -38 48 24 19 2 10 16 hvcurveto
          -50 -109 -76 -39 vhcurveto
          -49 callgsubr
          17 26 29 10 32 -1 -4 callgsubr
        </CharString>
        <CharString name="ntilde">
          27 -19 callsubr
          119 75 -48 callsubr
          58 -11 callgsubr
          hintmask 11010111
          -40 callsubr
          hintmask 10110111
          -21 callgsubr
          hintmask 11010111
          -53 callgsubr
          -29 599 -99 callsubr
          hintmask 11001011
          -102 callsubr
          hintmask 11010111
          -60 callgsubr
        </CharString>
        <CharString name="numbersign">
          185 10 -21 222 104 99 98 188 -20 hstem
          678 512 rmoveto
          -111 hlineto
          72 188 rlineto
          -94 hlineto
          -72 -188 rlineto
          -114 hlineto
          72 188 rlineto
          -94 hlineto
          -74 -188 rlineto
          -126 hlineto
          -32 -98 rlineto
          121 hlineto
          -37 -99 rlineto
          -112 hlineto
          -46 -104 rlineto
          118 hlineto
          -84 -222 rlineto
          94 hlineto
          86 222 rlineto
          112 hlineto
          -84 -222 rlineto
          96 hlineto
          84 222 rlineto
          117 hlineto
          48 104 rlineto
          -125 hlineto
          37 99 rlineto
          114 hlineto
          -208 hmoveto
          -39 -99 rlineto
          -114 hlineto
          39 99 rlineto
          endchar
        </CharString>
        <CharString name="o">
          -46 callgsubr
          -82 callsubr
          endchar
        </CharString>
        <CharString name="oacute">
          -88 callgsubr
          240 -98 callgsubr
        </CharString>
        <CharString name="ocircumflex">
          37 -10 102 314 102 242 -20 -82 callsubr
          147 179 -103 callsubr
        </CharString>
        <CharString name="odieresis">
          -46 callgsubr
          86 106 -18 callsubr
          2 -15 callsubr
          2 -104 callgsubr
          124 188 -100 callsubr
        </CharString>
        <CharString name="oe">
          370 -47 callgsubr
          -18 callsubr
          vstem
          860 -84 callgsubr
          -78 -60 -31 -48 -41 vhcurveto
          48 -43 -64 31 -81 hhcurveto
          -88 callsubr
          82 65 31 50 43 hvcurveto
          -50 45 69 -31 94 hhcurveto
          71 58 18 20 38 hvcurveto
          -103 callgsubr
          -371 hmoveto
          -41 callsubr
        </CharString>
        <CharString name="ograve">
          -88 callgsubr
          179 -91 callgsubr
        </CharString>
        <CharString name="one">
          -156 -46 callsubr
          144 1 callsubr
          272 hmoveto
          700 -98 vlineto
          -19 -48 -67 -52 -43 -9 11 -108 rcurveline
          33 6 29 13 26 17 rrcurveto
          -519 vlineto
          endchar
        </CharString>
        <CharString name="onehalf">
          208 -64 -21 85 99 214 73 314 -20 hstemhm
          40 135 420 90 vstemhm
          555 700 -63 callsubr
          508 85 rmoveto
          -91 callsubr
          -264 -48 callgsubr
          endchar
        </CharString>
        <CharString name="oneinferior">
          -283 21 -21 378 -20 hstemhm
          41 137 vstemhm
          178 hmoveto
          378 -76 vlineto
          -26 -5 -30 -33 -26 hhcurveto
          -74 vlineto
          hintmask 11100000
          41 2 rlineto
          -247 vlineto
          endchar
        </CharString>
        <CharString name="onequarter">
          211 -64 -21 106 -21 103 71 526 -20 hstemhm
          43 135 380 96 vstemhm
          178 -48 callgsubr
          476 380 -63 callsubr
          510 188 -90 callgsubr
        </CharString>
        <CharString name="onesuperior">
          -304 341 -21 378 -20 hstemhm
          28 135 vstemhm
          163 -54 callgsubr
          hintmask 11100000
          39 8 rlineto
          -253 vlineto
          endchar
        </CharString>
        <CharString name="ordfeminine">
          -164 455 -21 213 85 hstemhm
          30 110 -83 236 -103 103 hintmask 11010000
          325 519 rmoveto
          -16 hlineto
          -8 -8 2 22 hvcurveto
          107 vlineto
          52 -58 30 -57 -35 -35 -3 -16 -53 vhcurveto
          5 -81 rlineto
          5 33 22 10 34 34 1 -18 5 hhcurveto
          hintmask 11101000
          -31 -2 -128 -20 -81 vvcurveto
          -65 43 -27 39 33 45 5 15 16 vhcurveto
          -9 11 37 -11 67 hhcurveto
          -131 67 rmoveto
          -1 -5 -5 -1 -4 hhcurveto
          -20 -16 11 18 21 22 8 28 6 hvcurveto
          endchar
        </CharString>
        <CharString name="ordmasculine">
          -148 434 77 144 77 hstem
          28 105 110 105 vstem
          188 434 rmoveto
          102 58 72 77 77 -58 72 -102 -101 -59 -72 -77 -77 59 -72 101 hvcurveto
          221 vmoveto
          34 21 -35 -37 -37 -21 -35 -34 -34 -21 35 37 37 21 35 34 hvcurveto
          endchar
        </CharString>
        <CharString name="oslash">
          37 -15 -21 26 -44 callgsubr
          26 -3 callgsubr
          252 -23 callsubr
          -78 callsubr
          85 -35 77 -63 48 hvcurveto
          37 75 rlineto
          -109 hlineto
          -16 -34 rlineto
          5 -21 -22 3 -24 hhcurveto
          -160 -93 -119 -140 -85 34 -78 63 -47 hvcurveto
          -36 -75 rlineto
          106 hlineto
          16 34 rlineto
          -5 22 23 -3 25 hhcurveto
          102 359 rmoveto
          15 -27 9 -34 -39 vvcurveto
          0 callgsubr
          -8 -8 1 1 -7 vhcurveto
          23 312 rmoveto
          7 7 -1 -1 6 hvcurveto
          -123 -255 rlineto
          -15 27 -8 34 39 vvcurveto
          93 46 64 80 vhcurveto
          endchar
        </CharString>
        <CharString name="otilde">
          -46 callgsubr
          91 75 -48 callsubr
          -8 callgsubr
          252 127 hintmask 11101110
          -105 callgsubr
          70 193 -94 callgsubr
        </CharString>
        <CharString name="p">
          47 -30 callsubr
          -8 -20 hstemhm
          58 124 235 127 hintmask 11101100
          299 -60 callsubr
          -55 -34 -14 -23 -34 hvcurveto
          hintmask 11011100
          -10 29 rlineto
          -108 -742 124 266 hlineto
          -22 33 32 -12 52 hhcurveto
          hintmask 11101100
          -73 callsubr
        </CharString>
        <CharString name="paragraph">
          100 21 -21 593 107 hstem
          292 69 62 88 vstem
          580 593 rmoveto
          107 -260 vlineto
          -193 -94 -117 -117 -113 87 -114 172 -10 hvcurveto
          -229 69 593 62 -593 88 593 vlineto
          endchar
        </CharString>
        <CharString name="parenleft">
          -7 callgsubr
          41 101 vstem
          255 -136 rmoveto
          -62 109 -51 138 196 vvcurveto
          196 51 138 62 109 vhcurveto
          -113 hlineto
          -62 -109 -39 -123 -211 vvcurveto
          -211 39 -123 62 -109 vhcurveto
          endchar
        </CharString>
        <CharString name="parenright">
          -7 callgsubr
          135 101 vstem
          135 -136 rmoveto
          62 109 39 123 211 vvcurveto
          211 -39 123 -62 109 vhcurveto
          -113 hlineto
          62 -109 51 -138 -196 vvcurveto
          -196 -51 -138 -62 -109 vhcurveto
          endchar
        </CharString>
        <CharString name="percent">
          317 -28 callgsubr
          34 -13 callgsubr
          hintmask 1010011111000000
          654 -57 callsubr
          hintmask 0101011111000000
          -36 callsubr
          hintmask 1001101111000000
          -77 callsubr
          vhcurveto
          hintmask 1010101111000000
          -61 callgsubr
          hintmask 1001101111000000
          -71 callgsubr
          vhcurveto
          endchar
        </CharString>
        <CharString name="period">
          -293 0 -31 callsubr
          -13 callsubr
        </CharString>
        <CharString name="periodcentered">
          -293 213 -31 callsubr
          213 -6 callsubr
          endchar
        </CharString>
        <CharString name="perthousand">
          679 -28 callgsubr
          35 -13 callgsubr
          56 80 146 79 hintmask 1010011111110000
          655 -57 callsubr
          hintmask 0101011111110000
          -36 callsubr
          hintmask 1001101111110000
          -77 callsubr
          vhcurveto
          hintmask 1010101111110000
          -61 callgsubr
          hintmask 1001101111110000
          -71 callgsubr
          vhcurveto
          827 -641 -37 callsubr
          hvcurveto
          hintmask 1010101111110000
          -77 callsubr
          vhcurveto
          4 297 -67 callsubr
          endchar
        </CharString>
        <CharString name="plus">
          -67 123 -21 128 94 128 -20 hstem
          182 94 vstem
          414 230 -43 callsubr
          endchar
        </CharString>
        <CharString name="plusminus">
          -38 30 94 186 94 128 -20 hstem
          196 94 vstem
          428 310 -43 callsubr
          138 -280 -12 callgsubr
          endchar
        </CharString>
        <CharString name="q">
          47 -30 callsubr
          -8 -20 hstemhm
          -8 callgsubr
          235 124 hintmask 11011100
          273 -10 rmoveto
          52 32 12 22 33 hvcurveto
          -266 124 742 -108 vlineto
          -10 -29 rlineto
          hintmask 11101100
          23 -34 -34 14 -55 hhcurveto
          -160 -85 -68 callsubr
          85 -3 callsubr
          8 416 rmoveto
          80 35 -64 -93 -93 -35 -83 callgsubr
          endchar
        </CharString>
        <CharString name="question">
          -83 2 callsubr
          528 98 hstemhm
          140 124 -107 87 38 117 hintmask 11011000
          244 200 rmoveto
          13 vlineto
          144 155 82 121 vvcurveto
          80 -67 110 -143 -64 -63 -22 -49 -33 vhcurveto
          28 -92 rlineto
          35 25 42 30 57 hhcurveto
          57 44 -29 -64 hvcurveto
          -108 -125 -73 -125 vvcurveto
          -4 0 -4 3 -45 vhcurveto
          hintmask 11101000
          104 -200 -42 callgsubr
          endchar
        </CharString>
        <CharString name="questiondown">
          -87 -250 98 528 124 hstemhm
          46 117 18 124 -104 87 hintmask 11101000
          201 300 rmoveto
          -13 vlineto
          -144 -155 -82 -121 vvcurveto
          -80 67 -110 143 64 63 22 49 33 vhcurveto
          -28 92 rlineto
          -35 -25 -42 -30 -57 hhcurveto
          -57 -44 29 64 hvcurveto
          108 125 73 125 vvcurveto
          4 0 4 -3 45 vhcurveto
          hintmask 11110000
          -104 -20 callsubr
        </CharString>
        <CharString name="quotedbl">
          -129 -8 callsubr
          96 104 vstem
          360 750 -39 callgsubr
          -180 300 -39 callgsubr
          endchar
        </CharString>
        <CharString name="quotedblbase">
          -63 -89 -25 callgsubr
          54 124 106 -50 callsubr
          178 hmoveto
          -92 callgsubr
          328 110 rmoveto
          -85 callgsubr
        </CharString>
        <CharString name="quotedblleft">
          -105 -34 callgsubr
          43 124 86 -50 callsubr
          43 640 -55 callsubr
          112 -110 -55 callsubr
          endchar
        </CharString>
        <CharString name="quotedblright">
          -123 -34 callgsubr
          41 124 86 -50 callsubr
          375 620 rmoveto
          -92 callgsubr
          -112 110 rmoveto
          -85 callgsubr
        </CharString>
        <CharString name="quoteleft">
          -315 -34 callgsubr
          43 -50 callsubr
          43 640 -55 callsubr
          endchar
        </CharString>
        <CharString name="quoteright">
          -333 -34 callgsubr
          41 -50 callsubr
          165 620 rmoveto
          -85 callgsubr
        </CharString>
        <CharString name="quotesinglbase">
          -61 callsubr
        </CharString>
        <CharString name="quotesingle">
          -329 -8 callsubr
          vstem
          160 750 -39 callgsubr
          endchar
        </CharString>
        <CharString name="r">
          -183 21 -21 391 109 8 -20 hstemhm
          58 124 hintmask 10110000
          343 508 rmoveto
          -33 hlineto
          -57 -50 -34 -27 -26 hvcurveto
          hintmask 11010000
          -3 53 rlineto
          -116 -500 124 341 hlineto
          28 14 36 22 41 hhcurveto
          46 hlineto
          endchar
        </CharString>
        <CharString name="registered">
          176 37 70 96 193 67 75 84 71 hstem
          40 78 107 88 68 90 112 78 -69 callsubr
          585 vmoveto
          156 76 -109 -148 -147 -76 -111 -156 -156 -77 111 147 148 77 109 156 hvcurveto
          147 -419 rmoveto
          -74 138 rlineto
          24 15 23 33 39 vvcurveto
          85 -50 25 -69 vhcurveto
          -127 -335 88 112 30 hlineto
          62 -112 rlineto
          -66 260 rmoveto
          37 5 -13 -20 -19 -6 -15 -38 hvcurveto
          -24 67 hlineto
          endchar
        </CharString>
        <CharString name="ring">
          -233 576 48 82 49 hstem
          42 60 88 60 vstem
          146 576 rmoveto
          -89 callgsubr
        </CharString>
        <CharString name="s">
          -102 -10 93 336 89 -92 callsubr
          endchar
        </CharString>
        <CharString name="scaron">
          -102 -10 93 336 89 242 -20 -92 callsubr
          155 686 -83 callsubr
        </CharString>
        <CharString name="section">
          -65 -85 96 643 96 hstemhm
          39 95 -53 87 124 86 -50 93 hintmask 11010100
          335 186 rmoveto
          73 30 13 68 49 201 -253 -49 111 vvcurveto
          47 45 11 45 39 53 -23 -27 37 vhcurveto
          9 105 rlineto
          20 -22 -66 21 -55 hhcurveto
          -134 -38 -92 -75 -49 14 -32 29 -23 hvcurveto
          hintmask 11101000
          -73 -31 -12 -68 -48 -201 253 49 -111 vvcurveto
          -47 -45 -11 -45 -39 -53 23 27 -37 vhcurveto
          -9 -105 rlineto
          -20 22 66 -21 55 hhcurveto
          134 37 92 75 48 -14 32 -29 24 hvcurveto
          -138 222 rmoveto
          hintmask 11100100
          52 -13 79 -19 -65 vvcurveto
          -30 -40 -34 -23 vhcurveto
          -52 13 -79 29 65 vvcurveto
          30 40 24 23 vhcurveto
          endchar
        </CharString>
        <CharString name="semicolon">
          -278 -89 -21 240 180 0 130 hstemhm
          56 124 -124 137 hintmask 10101000
          193 310 rmoveto
          130 -137 -130 vlineto
          hintmask 11010000
          124 -310 rmoveto
          -85 callgsubr
        </CharString>
        <CharString name="seven">
          -15 21 -21 576 124 hstem
          503 -9 callsubr
          -460 -124 274 hlineto
          -240 -576 rlineto
          134 hlineto
          endchar
        </CharString>
        <CharString name="seveninferior">
          -191 21 -21 279 99 hstem
          314 378 -31 callgsubr
        </CharString>
        <CharString name="sevensuperior">
          -227 341 -21 279 99 hstem
          300 698 -31 callgsubr
        </CharString>
        <CharString name="six">
          37 -14 114 217 104 279 -20 hstem
          58 124 220 118 vstem
          276 -14 rmoveto
          150 94 109 124 135 -93 67 -118 -33 -56 -5 -34 -27 hvcurveto
          122 15 173 146 61 hhcurveto
          -84 50 rlineto
          -95 -205 -186 -261 -194 96 -73 122 hvcurveto
          25 331 rmoveto
          71 30 -53 -43 -64 -44 -57 -69 -48 -59 34 69 77 52 37 67 hvcurveto
          endchar
        </CharString>
        <CharString name="sixinferior">
          -182 -8 87 0 75 74 113 37 -20 hstemhm
          42 91 92 85 hintmask 10111100
          168 -8 rmoveto
          87 55 64 63 70 -50 39 -72 -3 -37 -2 -5 -8 hvcurveto
          17 87 103 53 vhcurveto
          -64 37 rlineto
          -43 -131 -91 -139 -111 54 -45 72 hvcurveto
          hintmask 01111100
          17 162 rmoveto
          18 22 -14 -15 -28 -26 -18 -23 -13 -30 14 18 36 20 7 32 hvcurveto
          endchar
        </CharString>
        <CharString name="sixsuperior">
          -207 312 88 73 75 -75 225 hstemhm
          29 91 92 85 hintmask 11011000
          155 312 rmoveto
          87 55 64 63 70 -52 39 -66 -3 -41 -3 -5 -8 hvcurveto
          11 100 110 40 vhcurveto
          hintmask 10111000
          -64 37 rlineto
          -48 -2 -126 -89 -139 vvcurveto
          -111 54 -45 72 vhcurveto
          17 161 rmoveto
          18 22 -13 -15 -28 -26 -17 -23 -13 -30 13 18 36 20 6 32 hvcurveto
          endchar
        </CharString>
        <CharString name="slash">
          26 -64 -21 785 -20 hstem
          518 700 -63 callsubr
          endchar
        </CharString>
        <CharString name="space">
          -300 endchar
        </CharString>
        <CharString name="sterling">
          0 0 104 208 84 228 82 hstem
          154 113 vstem
          471 604 rmoveto
          64 -16 -44 38 -88 hhcurveto
          -151 -18 -110 -96 hvcurveto
          -104 -74 vlineto
          -20 -84 rlineto
          89 hlineto
          -11 -113 -29 -106 -78 -93 rrcurveto
          431 104 -243 hlineto
          31 71 12 62 5 75 rrcurveto
          167 hlineto
          20 84 rlineto
          -183 84 hlineto
          78 4 66 69 51 14 -37 -44 14 vhcurveto
          endchar
        </CharString>
        <CharString name="t">
          -181 -10 102 306 102 123 -20 hstem
          87 -50 callsubr
          321 92 rmoveto
          -34 hlineto
          -70 -6 4 76 hvcurveto
          226 110 102 -110 123 vlineto
          -124 -13 rlineto
          -110 -12 callsubr
          -277 hlineto
          -65 40 -66 94 vhcurveto
          89 hlineto
          endchar
        </CharString>
        <CharString name="thorn">
          46 -30 callsubr
          1 callgsubr
          57 124 235 -23 callsubr
          -56 callsubr
          -992 124 266 vlineto
          -22 33 32 -12 52 hhcurveto
          -73 callsubr
        </CharString>
        <CharString name="three">
          14 -17 callgsubr
          222 99 176 108 hstemhm
          326 129 -101 126 hintmask 11101000
          224 -14 rmoveto
          130 126 76 155 78 -32 57 -60 36 hvcurveto
          hintmask 11110000
          44 32 23 47 61 vvcurveto
          75 -37 111 -180 -76 -61 -25 -21 -21 vhcurveto
          20 -96 rlineto
          24 27 51 10 45 hhcurveto
          73 30 -34 -50 -49 -30 -43 -103 hvcurveto
          -46 hlineto
          -11 -99 rlineto
          90 hlineto
          hintmask 11101000
          106 22 -57 -63 -78 -64 -24 -71 -58 -65 22 27 -29 hvcurveto
          -31 -118 rlineto
          -17 14 86 -37 88 hhcurveto
          endchar
        </CharString>
        <CharString name="threeinferior">
          -194 -8 -2 callsubr
          hstem
          197 91 vstem
          137 -8 -79 callgsubr
          -26 -38 10 12 -12 -38 callsubr
          endchar
        </CharString>
        <CharString name="threequarters">
          379 -64 -21 106 -21 103 71 138 -2 callsubr
          -6 -20 hstemhm
          198 91 436 96 hintmask 1111101110000000
          722 700 -63 callsubr
          -219 397 -63 callgsubr
          hintmask 1111110110000000
          -93 callsubr
          -35 -31 15 7 -10 -38 callsubr
          732 -209 -90 callgsubr
        </CharString>
        <CharString name="threesuperior">
          -220 312 -2 callsubr
          hstem
          184 91 vstem
          124 312 -79 callgsubr
          -35 -31 15 7 -10 -38 callsubr
          endchar
        </CharString>
        <CharString name="tilde">
          3 599 -22 callsubr
          334 599 -75 callsubr
        </CharString>
        <CharString name="trademark">
          214 358 -21 285 78 hstem
          129 80 vstem
          501 425 rmoveto
          76 124 26 -212 rlineto
          83 hlineto
          -49 363 rlineto
          -51 hlineto
          -90 -148 -91 148 rlineto
          -50 hlineto
          -49 -363 rlineto
          82 hlineto
          27 212 75 -124 rlineto
          -177 275 rmoveto
          -281 -78 97 -285 80 285 94 hlineto
          endchar
        </CharString>
        <CharString name="two">
          4 2 callsubr
          483 107 hstem
          326 121 vstem
          472 hmoveto
          124 -208 vlineto
          130 196 53 115 91 vvcurveto
          84 -45 104 -147 -115 -69 -64 -35 -19 vhcurveto
          16 -115 rlineto
          32 21 53 75 87 hhcurveto
          61 36 -37 -63 -51 -23 -81 -259 -375 hvcurveto
          endchar
        </CharString>
        <CharString name="twoinferior">
          -192 0 99 214 73 hstem
          184 90 vstem
          287 hmoveto
          -91 callsubr
          endchar
        </CharString>
        <CharString name="twosuperior">
          -216 320 99 214 73 hstem
          173 90 vstem
          276 320 rmoveto
          -91 callsubr
          endchar
        </CharString>
        <CharString name="u">
          -52 callgsubr
          hstemhm
          53 -11 callgsubr
          hintmask 01111000
          -65 callgsubr
          hintmask 10111000
          -100 callgsubr
          hintmask 01111000
          2 -30 rlineto
          endchar
        </CharString>
        <CharString name="uacute">
          -86 callgsubr
          646 -98 callgsubr
        </CharString>
        <CharString name="ucircumflex">
          -55 callgsubr
          193 124 hintmask 01111100
          -65 callgsubr
          hintmask 10111100
          -100 callgsubr
          hintmask 01111100
          2 -30 rlineto
          45 585 -103 callsubr
        </CharString>
        <CharString name="udieresis">
          -52 callgsubr
          114 106 hstemhm
          53 124 -25 -15 callsubr
          -30 124 hintmask 01111001
          -65 callgsubr
          hintmask 10111010
          -100 callgsubr
          hintmask 01111001
          2 -30 rlineto
          hintmask 10110110
          22 594 -100 callsubr
        </CharString>
        <CharString name="ugrave">
          -86 callgsubr
          585 -91 callgsubr
        </CharString>
        <CharString name="underscore">
          33 -130 94 hstem
          559 -130 rmoveto
          94 -560 -94 vlineto
          endchar
        </CharString>
        <CharString name="uni00AD">
          -35 callgsubr
        </CharString>
        <CharString name="v">
          -29 -11 callsubr
          493 500 rmoveto
          -122 hlineto
          -123 -346 -123 346 rlineto
          -122 hlineto
          192 -500 rlineto
          106 hlineto
          endchar
        </CharString>
        <CharString name="w">
          201 -11 callsubr
          716 500 rmoveto
          -121 hlineto
          -87 -349 -93 339 rlineto
          -104 hlineto
          -94 -339 -86 349 rlineto
          -121 hlineto
          146 -500 rlineto
          104 hlineto
          103 326 103 -326 rlineto
          104 hlineto
          endchar
        </CharString>
        <CharString name="x">
          -34 -11 callsubr
          481 hmoveto
          -162 250 162 250 rlineto
          -148 hlineto
          -84 -141 -91 141 rlineto
          -148 hlineto
          161 -250 -161 -250 rlineto
          148 hlineto
          84 141 91 -141 rlineto
          endchar
        </CharString>
        <CharString name="y">
          -18 callgsubr
          hstem
          -81 callgsubr
          endchar
        </CharString>
        <CharString name="yacute">
          -18 callgsubr
          270 -20 hstem
          175 187 vstem
          -81 callgsubr
          140 888 -98 callgsubr
        </CharString>
        <CharString name="ydieresis">
          -18 callgsubr
          114 106 hstem
          144 -15 callsubr
          vstem
          -81 callgsubr
          170 836 -100 callsubr
        </CharString>
        <CharString name="yen">
          181 21 -21 138 69 61 69 363 -20 hstem
          289 1 callsubr
          679 -9 callsubr
          -133 hlineto
          -193 -276 -193 276 rlineto
          -133 hlineto
          244 -363 rlineto
          -123 hlineto
          -24 -69 rlineto
          165 -61 -141 hlineto
          -24 -69 rlineto
          165 -138 128 138 138 hlineto
          26 69 rlineto
          -164 61 138 hlineto
          26 69 rlineto
          -146 hlineto
          endchar
        </CharString>
        <CharString name="z">
          -5 callgsubr
          -51 callsubr
          endchar
        </CharString>
        <CharString name="zcaron">
          -5 callgsubr
          250 -20 -51 callsubr
          152 566 -83 callsubr
        </CharString>
        <CharString name="zero">
          181 -14 115 500 113 hstem
          59 128 334 126 vstem
          347 -14 rmoveto
          181 119 148 222 211 -122 147 -166 -169 -131 -153 -222 -212 115 -141 173 hvcurveto
          10 615 rmoveto
          85 79 -79 -166 -181 -74 -74 -98 -92 -70 71 167 179 85 83 85 hvcurveto
          endchar
        </CharString>
        <CharString name="zeroinferior">
          -100 -8 87 223 84 hstem
          42 95 152 94 vstem
          209 -8 -74 callsubr
        </CharString>
        <CharString name="zerosuperior">
          -126 312 87 223 84 hstem
          29 95 152 94 vstem
          196 312 -74 callsubr
        </CharString>
      <CharString index="0">
        487 -76 callsubr
        135 vlineto
        145 -69 56 -112 -62 -60 -15 -29 -60 vhcurveto
        -76 callgsubr
        64 23 -25 -57 3 hvcurveto
        -94 -3 -187 -35 -141 vvcurveto
        -95 65 -55 80 60 60 21 37 33 vhcurveto
        -35 19 37 -23 56 hhcurveto
        45 hlineto
        -173 131 rmoveto
        -25 -26 -37 -11 -22 hhcurveto
        -47 -20 19 41 59 82 28 70 3 hvcurveto
        return
      </CharString>
      <CharString index="1">
        480 -84 callgsubr
        -154 -86 -120 -139 -140 90 -119 181 71 58 18 20 38 vhcurveto
        -103 callgsubr
        return
      </CharString>
      <CharString index="2">
        -78 callsubr
        140 -93 119 -160 -88 callsubr
        hvcurveto
        416 vmoveto
        -99 callgsubr
        return
      </CharString>
      <CharString index="3">
        -23 callsubr
        -105 callgsubr
        return
      </CharString>
      <CharString index="4">
        -6 105 rlineto
        -22 -41 -66 -19 -47 hhcurveto
        -66 -69 38 93 -14 hvcurveto
        115 183 rmoveto
        67 23 -54 -45 hvcurveto
        -202 hlineto
        57 12 36 42 64 hhcurveto
        return
      </CharString>
      <CharString index="5">
        220 -145 144 -200 -101 callgsubr
        return
      </CharString>
      <CharString index="6">
        -80 callsubr
        -220 145 -144 200 return
      </CharString>
      <CharString index="7">
        -85 callsubr
        -269 vlineto
        -141 56 -100 156 39 43 18 22 29 vhcurveto
        return
      </CharString>
      <CharString index="8">
        80 46 -64 -93 -93 -46 -83 callgsubr
        return
      </CharString>
      <CharString index="9">
        rmoveto
        104 vlineto
        -187 -91 -58 callsubr
        endchar
      </CharString>
      <CharString index="10">
        -140 -69 -101 -136 -95 callgsubr
        return
      </CharString>
      <CharString index="11">
        rmoveto
        105 44 65 58 35 -32 43 -15 15 hvcurveto
        hintmask 11100100
        7 11 19 45 32 vvcurveto
        53 -32 37 -87 -92 -31 -44 -55 -30 9 -44 12 -9 vhcurveto
        hintmask 11110010
        -25 -32 -17 -38 -37 vvcurveto
        -61 46 -44 89 vhcurveto
        7 328 rmoveto
        34 0 -26 -17 -28 -11 -16 -28 hvcurveto
        hintmask 11101010
        -33 -2 27 14 23 2 23 38 hvcurveto
        3 -146 rmoveto
        22 24 -22 -43 -30 -10 -18 -43 hvcurveto
        hintmask 11110010
        -32 -21 22 27 40 40 24 20 hvcurveto
        endchar
      </CharString>
      <CharString index="12">
        -136 -69 101 140 140 69 101 136 return
      </CharString>
      <CharString index="13">
        -99 callsubr
        hintmask 11010110
        -102 callsubr
        hintmask 11101110
        -60 callgsubr
      </CharString>
      <CharString index="14">
        130 -124 -130 vlineto
        return
      </CharString>
      <CharString index="15">
        -93 callgsubr
        33 -10 -33 -86 26 -14 rlineto
        return
      </CharString>
      <CharString index="16">
        -33 callsubr
        -187 91 rlineto
        -104 vlineto
        endchar
      </CharString>
      <CharString index="17">
        rmoveto
        71 -49 204 -84 vlineto
        -187 -275 rlineto
        175 -103 96 103 hlineto
        -96 71 rmoveto
        -54 hlineto
        54 76 rlineto
        endchar
      </CharString>
      <CharString index="18">
        65 39 40 49 49 -39 41 -65 -64 -40 -41 -49 -49 40 -40 64 hvcurveto
        130 vmoveto
        25 19 -17 -24 -25 -19 -16 -25 -25 -19 16 25 24 19 17 25 hvcurveto
        endchar
      </CharString>
      <CharString index="19">
        -23 callgsubr
        32 187 33 -104 callgsubr
        93 return
      </CharString>
      <CharString index="20">
        -64 -80 -87 callsubr
        return
      </CharString>
      <CharString index="21">
        -55 callgsubr
        5 187 1 124 hintmask 01111110
        -65 callgsubr
        hintmask 10111110
        -100 callgsubr
        hintmask 01111110
        2 -30 rlineto
        -9 return
      </CharString>
      <CharString index="22">
        -92 callgsubr
        endchar
      </CharString>
      <CharString index="23">
        223 rmoveto
        5 24 3 22 22 vvcurveto
        132 -94 85 -126 return
      </CharString>
      <CharString index="24">
        -87 callgsubr
        hvcurveto
        return
      </CharString>
      <CharString index="25">
        -54 hmoveto
        106 -97 -106 vlineto
        endchar
      </CharString>
      <CharString index="26">
        535 500 rmoveto
        -138 hlineto
        -130 -322 -128 322 rlineto
        -138 hlineto
        208 -467 -111 -275 rlineto
        124 hlineto
        return
      </CharString>
      <CharString index="27">
        380 -14 rmoveto
        200 145 144 220 return
      </CharString>
      <CharString index="28">
        -63 callgsubr
        -93 callsubr
        return
      </CharString>
      <CharString index="29">
        -20 hstem
        69 128 324 -104 callsubr
        return
      </CharString>
      <CharString index="30">
        -72 callsubr
        250 -20 hstemhm
        77 131 -28 187 hintmask 11111000
        -98 callsubr
        hintmask 11110100
        290 return
      </CharString>
      <CharString index="31">
        11 -101 rlineto
        26 53 39 12 45 hhcurveto
        return
      </CharString>
      <CharString index="32">
        100 21 -21 169 124 407 -20 return
      </CharString>
      <CharString index="33">
        rmoveto
        67 70 30 97 81 -51 33 -92 1 hvcurveto
        7 43 rlineto
        107 hlineto
        10 99 rlineto
        -188 hlineto
        -27 -218 rlineto
        79 hlineto
        62 6 -22 -14 -33 -9 -6 -17 -65 -40 15 24 -13 hvcurveto
        -23 -86 rlineto
        return
      </CharString>
      <CharString index="34">
        235 -62 callsubr
        return
      </CharString>
      <CharString index="35">
        -27 -41 -40 -14 -48 hhcurveto
        -87 callsubr
        48 40 -14 -27 41 hvcurveto
        11 106 return
      </CharString>
      <CharString index="36">
        -83 -32 -32 -43 -40 -31 30 77 82 37 34 37 return
      </CharString>
      <CharString index="37">
        21 -21 700 -20 return
      </CharString>
      <CharString index="38">
        -152 206 152 -58 callgsubr
        -152 -206 152 -206 rlineto
        return
      </CharString>
      <CharString index="39">
        -27 -10 102 143 84 82 107 return
      </CharString>
      <CharString index="40">
        -47 callsubr
        270 -20 hstemhm
        48 187 -158 128 hintmask 11101000
        -66 callsubr
        hintmask 11110000
        158 return
      </CharString>
      <CharString index="41">
        182 hmoveto
        500 -124 -500 vlineto
        return
      </CharString>
      <CharString index="42">
        494 hmoveto
        500 -124 -364 vlineto
        return
      </CharString>
      <CharString index="43">
        -700 rlineto
        133 hlineto
        return
      </CharString>
      <CharString index="44">
        rmoveto
        77 74 43 85 51 -25 15 -10 24 hvcurveto
        4 2 16 28 40 vvcurveto
        return
      </CharString>
      <CharString index="45">
        -51 callgsubr
        -22 callgsubr
        return
      </CharString>
      <CharString index="46">
        474 -47 -67 callsubr
        -470 344 rmoveto
        37 35 -32 -76 hvcurveto
        return
      </CharString>
      <CharString index="47">
        38 35 -42 54 hhcurveto
        endchar
      </CharString>
      <CharString index="48">
        124 149 124 return
      </CharString>
      <CharString index="49">
        206 rlineto
        -147 hlineto
        return
      </CharString>
      <CharString index="50">
        630 -51 callgsubr
        -452 vlineto
        -299 452 rlineto
        -126 -24 callgsubr
        480 hlineto
        320 -480 rlineto
        return
      </CharString>
      <CharString index="51">
        -34 callsubr
        54 -242 rmoveto
        89 39 59 72 hvcurveto
        611 -124 -560 vlineto
        -79 -7 -1 -53 vhcurveto
        11 -102 rlineto
        return
      </CharString>
      <CharString index="52">
        27 -10 104 -73 -5 callsubr
        53 124 return
      </CharString>
      <CharString index="53">
        320 rmoveto
        378 -76 vlineto
        -26 -5 -28 -33 -26 hhcurveto
        -74 vlineto
        return
      </CharString>
      <CharString index="54">
        27 23 29 16 42 hhcurveto
        70 29 -44 -93 hvcurveto
        -269 vlineto
        return
      </CharString>
      <CharString index="55">
        27 -10 104 -73 -21 500 -20 return
      </CharString>
      <CharString index="56">
        hmoveto
        700 -128 return
      </CharString>
      <CharString index="57">
        hstem
        541 -9 callsubr
        -488 -124 277 hlineto
        -322 -576 rlineto
        488 124 -277 hlineto
        return
      </CharString>
      <CharString index="58">
        hintmask 10111000
        53 -37 rlineto
        93 89 125 105 102 -49 54 -78 hvcurveto
        -11 -161 rmoveto
        -18 -18 10 23 18 return
      </CharString>
      <CharString index="59">
        -54 callgsubr
        hintmask 11111100
        39 8 rlineto
        -253 vlineto
        return
      </CharString>
      <CharString index="60">
        -10 102 131 84 99 102 return
      </CharString>
      <CharString index="61">
        37 -33 callgsubr
        return
      </CharString>
      <CharString index="62">
        99 -21 412 -20 hstem
        return
      </CharString>
      <CharString index="63">
        102 314 102 return
      </CharString>
      <CharString index="64">
        hmoveto
        200 145 130 220 220 -145 130 -200 hvcurveto
        -262 return
      </CharString>
      <CharString index="65">
        rmoveto
        124 -124 -124 vlineto
        return
      </CharString>
      <CharString index="66">
        hmoveto
        124 -305 179 228 124 -228 149 296 124 return
      </CharString>
      <CharString index="67">
        rmoveto
        -104 -9 -70 -133 74 9 rlineto
        endchar
      </CharString>
      <CharString index="68">
        rmoveto
        -124 hlineto
        20 -300 rlineto
        84 hlineto
        return
      </CharString>
      <CharString index="69">
        hmoveto
        269 vlineto
        141 -57 98 -156 return
      </CharString>
      <CharString index="70">
        -121 -181 -182 return
      </CharString>
      <CharString index="71">
        -101 callgsubr
        hvcurveto
        return
      </CharString>
      <CharString index="72">
        -107 230 94 hstem
        364 0 callsubr
        -310 -94 vlineto
        endchar
      </CharString>
      <CharString index="73">
        531 -25 callgsubr
        return
      </CharString>
      <CharString index="74">
        -10 -44 callgsubr
        return
      </CharString>
      <CharString index="75">
        -73 callgsubr
        236 -20 hstem
        -15 callgsubr
        return
      </CharString>
      <CharString index="76">
        rmoveto
        -272 -99 127 hlineto
        -120 -279 rlineto
        105 hlineto
        endchar
      </CharString>
      <CharString index="77">
        -52 callsubr
        71 123 return
      </CharString>
      <CharString index="78">
        80 46 -64 -93 0 callgsubr
        -80 return
      </CharString>
      <CharString index="79">
        -9 74 -56 -21 300 72 -25 74 223 72 -4 -20 hstemhm
        return
      </CharString>
      <CharString index="80">
        -42 callsubr
        270 -20 hstem
        69 128 return
      </CharString>
      <CharString index="81">
        -136 109 668 109 return
      </CharString>
      <CharString index="82">
        -21 240 -20 hstem
        return
      </CharString>
      <CharString index="83">
        -700 128 return
      </CharString>
      <CharString index="84">
        -46 callgsubr
        242 -3 callgsubr
        return
      </CharString>
      <CharString index="85">
        -700 vlineto
        return
      </CharString>
      <CharString index="86">
        -2 30 rlineto
        -116 -500 124 363 hlineto
        return
      </CharString>
      <CharString index="87">
        -53 callsubr
        1 callgsubr
        return
      </CharString>
      <CharString index="88">
        -12 119 367 119 return
      </CharString>
      <CharString index="89">
        12 -221 -21 742 -20 return
      </CharString>
      <CharString index="90">
        -14 123 return
      </CharString>
      <CharString index="91">
        -15 callgsubr
        410 return
      </CharString>
      <CharString index="92">
        35 140 return
      </CharString>
      <CharString index="93">
        242 -20 return
      </CharString>
      <CharString index="94">
        80 146 79 165 80 146 79 return
      </CharString>
      <CharString index="95">
        rmoveto
        94 -370 -94 vlineto
        return
      </CharString>
      <CharString index="96">
        124 193 124 return
      </CharString>
      <CharString index="97">
        119 140 140 return
      </CharString>
      <CharString index="98">
        hstem
        71 123 return
      </CharString>
      <CharString index="99">
        28 127 return
      </CharString>
      <CharString index="100">
        -248 -115 -21 886 -20 hstem
        return
      </CharString>
      <CharString index="101">
        hmoveto
        -93 callgsubr
        return
      </CharString>
      <CharString index="102">
        -53 0 110 280 110 return
      </CharString>
      <CharString index="103">
        -37 -33 -22 -6 -30 hvcurveto
        endchar
      </CharString>
      <CharString index="104">
        -20 -18 callsubr
        return
      </CharString>
      <CharString index="105">
        21 -21 406 102 return
      </CharString>
      <CharString index="106">
        -20 -29 callsubr
        return
      </CharString>
      <CharString index="107">
        -93 -46 -64 -80 return
      </CharString>
      <CharString index="108">
        -14 callgsubr
        hstem
        return
      </CharString>
      <CharString index="109">
        140 vstem
        return
      </CharString>
</ttFont>
